<?xml version="1.0" standalone="no"?>
<!DOCTYPE svg PUBLIC "-//W3C//DTD SVG 20010904//EN"
 "http://www.w3.org/TR/2001/REC-SVG-20010904/DTD/svg10.dtd">
<svg version="1.0" xmlns="http://www.w3.org/2000/svg"
 width="495.000000pt" height="654.000000pt" viewBox="0 0 495.000000 654.000000"
 preserveAspectRatio="xMidYMid meet">

<g transform="translate(0.000000,654.000000) scale(0.100000,-0.100000)"
fill="#000000" stroke="none">
<path d="M2922 6165 c-35 -8 -69 -18 -75 -23 -7 -5 -25 -12 -40 -16 -19 -5
-27 -12 -23 -21 3 -9 0 -12 -9 -9 -27 11 -143 -92 -205 -181 -44 -64 -91 -155
-85 -166 4 -5 2 -9 -3 -9 -5 0 -14 -12 -21 -26 -9 -20 -9 -30 0 -40 9 -11 9
-13 -2 -9 -10 4 -18 -8 -28 -42 -7 -27 -17 -58 -22 -71 -29 -74 -77 -330 -80
-433 -1 -24 -4 -34 -6 -21 -2 12 -7 22 -11 22 -4 0 -7 53 -8 118 -1 116 -26
311 -46 361 -6 14 -12 36 -14 48 -4 37 -71 171 -98 198 -14 14 -22 25 -18 25
16 1 -86 83 -131 106 -68 35 -174 67 -229 68 -27 1 -48 5 -48 9 0 4 -40 7 -90
6 -49 -1 -90 -5 -90 -10 0 -5 -6 -6 -14 -3 -28 11 -176 -45 -176 -66 0 -5 -6
-7 -12 -5 -20 7 -94 -67 -151 -152 -28 -40 -80 -173 -91 -230 -3 -15 -10 -48
-15 -73 -5 -25 -13 -67 -16 -93 -4 -27 -9 -47 -13 -45 -123 66 -295 63 -396
-7 -17 -12 -30 -27 -29 -33 2 -6 -4 -9 -12 -6 -23 9 -107 -78 -99 -102 5 -15
4 -16 -5 -4 -5 8 -11 12 -13 10 -59 -79 -119 -200 -100 -200 4 0 2 -4 -5 -8
-21 -13 -43 -123 -43 -217 1 -392 404 -694 1128 -844 75 -16 182 -35 237 -42
67 -9 92 -15 75 -20 -14 -3 -33 -2 -43 3 -10 5 -39 9 -65 8 -26 0 -130 7 -232
15 -126 11 -244 15 -370 11 -192 -5 -244 -11 -234 -28 4 -6 -5 -8 -25 -3 -19
4 -31 3 -31 -4 0 -6 -7 -8 -15 -5 -8 4 -15 1 -15 -6 0 -6 -4 -8 -10 -5 -22 14
-176 -87 -164 -107 4 -6 2 -8 -4 -5 -14 9 -86 -89 -78 -108 3 -8 0 -14 -6 -12
-18 3 -78 -184 -91 -283 -29 -235 67 -412 279 -512 77 -36 223 -78 272 -78 22
0 22 -1 9 -27 -47 -91 -60 -146 -54 -232 7 -111 49 -195 146 -292 195 -195
461 -222 688 -68 72 48 193 176 265 281 64 91 99 151 97 164 0 4 4 10 9 13 8
5 90 169 113 226 39 98 60 158 56 162 -3 2 1 16 8 30 8 15 12 30 9 35 -3 4 -1
8 5 8 9 0 24 46 26 80 1 8 7 29 14 45 7 17 13 41 14 55 1 14 5 27 8 30 10 8
60 251 53 261 -3 5 0 9 5 9 6 0 11 17 11 38 1 65 16 16 53 -173 46 -231 64
-373 78 -608 16 -270 -7 -615 -57 -850 -8 -38 -12 -73 -8 -78 3 -5 1 -9 -3 -9
-5 0 -15 -28 -22 -62 -7 -35 -23 -96 -36 -137 -13 -41 -22 -78 -19 -83 3 -4 0
-8 -5 -8 -6 0 -11 -6 -11 -12 0 -7 -12 -44 -26 -81 -22 -58 -24 -71 -13 -79
11 -8 10 -9 -3 -4 -16 5 -23 -4 -19 -27 0 -4 -3 -7 -8 -7 -5 0 -14 -15 -21
-33 -6 -17 -20 -48 -31 -68 -10 -20 -16 -39 -12 -43 3 -3 2 -6 -4 -6 -5 0 -18
-19 -28 -42 -10 -24 -25 -51 -33 -60 -8 -9 -11 -22 -6 -29 4 -7 3 -10 -3 -6
-15 9 -55 -75 -40 -86 8 -5 7 -7 -4 -5 -11 2 -35 -25 -73 -81 -31 -46 -56 -86
-56 -87 0 -2 -7 -12 -15 -21 -8 -10 -37 -47 -65 -83 -28 -36 -66 -81 -84 -101
-18 -20 -35 -40 -37 -45 -2 -5 -39 -40 -81 -79 -43 -38 -77 -74 -76 -80 1 -5
-5 -22 -12 -37 -12 -25 -11 -30 5 -48 33 -36 62 -25 142 53 114 109 237 258
318 385 6 9 18 25 28 36 16 19 21 31 18 49 0 4 5 7 12 7 6 0 21 15 31 33 70
119 85 150 79 160 -4 6 -1 7 7 2 10 -6 12 -4 7 9 -4 10 -3 15 3 11 12 -8 53
72 44 87 -4 6 -3 8 3 5 11 -7 56 80 48 94 -4 5 -3 9 2 9 26 0 180 436 198 560
1 8 5 22 8 30 21 56 67 339 72 444 3 49 7 91 10 94 3 3 5 114 5 246 0 308 -24
551 -82 831 -11 55 -23 111 -26 125 -7 38 10 17 72 -92 58 -101 136 -265 238
-503 88 -203 149 -330 198 -410 169 -278 345 -366 618 -309 126 26 293 108
276 136 -4 6 -3 8 3 5 24 -15 111 99 150 196 30 74 42 222 24 307 -7 30 -12
61 -13 68 -1 6 -4 12 -8 12 -3 0 -6 8 -6 18 0 9 -4 31 -7 47 l-7 30 58 1 c177
3 354 203 391 441 11 72 5 193 -10 193 -5 0 -6 7 -3 15 8 21 -15 87 -28 79 -7
-4 -8 -2 -4 4 14 24 -85 169 -106 156 -6 -4 -8 -2 -4 4 8 13 -65 74 -82 67 -7
-3 -10 0 -7 5 13 21 -241 120 -266 104 -5 -3 -9 -1 -9 4 0 5 -46 15 -102 22
-162 20 -494 2 -648 -34 -8 -2 -39 -7 -67 -11 -29 -4 -53 -12 -53 -17 0 -5 -4
-6 -10 -3 -9 6 -202 -38 -249 -57 -15 -6 -35 -12 -46 -13 -11 -2 -31 -6 -45
-10 -25 -6 -25 -6 2 10 52 29 232 93 518 181 301 93 431 147 565 236 109 73
211 188 199 224 -4 14 -3 16 4 5 7 -10 16 -4 36 31 33 57 58 128 52 151 -2 9
0 15 5 12 4 -3 11 4 13 17 40 189 34 335 -18 436 -38 74 -162 170 -241 186
-16 4 -41 9 -55 13 -43 11 -282 15 -342 5 -32 -5 -58 -8 -58 -7 0 1 7 22 16
46 35 95 18 242 -38 323 -63 93 -212 200 -288 208 -14 2 -28 7 -31 11 -12 16
-191 17 -257 2z m296 -50 c-3 -3 -9 2 -12 12 -6 14 -5 15 5 6 7 -7 10 -15 7
-18z m-1608 -86 c0 -6 -4 -7 -10 -4 -5 3 -10 11 -10 16 0 6 5 7 10 4 6 -3 10
-11 10 -16z m-73 -25 c-3 -3 -12 -4 -19 -1 -8 3 -5 6 6 6 11 1 17 -2 13 -5z
m96 -14 c3 -11 1 -18 -4 -14 -5 3 -9 12 -9 20 0 20 7 17 13 -6z m1522 0 c3 -5
1 -10 -4 -10 -6 0 -11 5 -11 10 0 6 2 10 4 10 3 0 8 -4 11 -10z m-1608 -6 c-3
-3 -12 -4 -19 -1 -8 3 -5 6 6 6 11 1 17 -2 13 -5z m1700 -56 c-3 -7 -5 -2 -5
12 0 14 2 19 5 13 2 -7 2 -19 0 -25z m-177 -25 c88 -44 160 -138 189 -248 24
-93 18 -223 -12 -285 -11 -21 -12 -31 -3 -40 8 -8 7 -10 -6 -5 -10 4 -18 3
-18 -2 0 -17 -63 -74 -98 -89 -47 -19 -86 -18 -132 6 -96 49 -149 214 -95 297
27 40 33 25 14 -34 -25 -75 -24 -89 12 -162 53 -107 130 -121 201 -36 31 37
70 116 64 130 -3 8 -1 15 5 15 8 0 10 33 7 103 -3 88 -8 110 -34 162 -16 33
-34 59 -41 58 -7 -2 -10 3 -7 11 5 13 -31 43 -58 48 -7 2 -16 7 -20 12 -10 15
-138 12 -147 -3 -5 -7 -12 -12 -17 -12 -17 1 -44 -10 -44 -20 0 -5 -6 -9 -14
-9 -18 0 -77 -70 -70 -82 3 -4 1 -8 -5 -8 -9 0 -42 -86 -46 -120 -1 -8 -6 -24
-11 -35 -16 -36 -8 -195 20 -382 27 -192 34 -372 15 -452 -15 -69 -60 -152
-109 -205 -25 -26 -44 -52 -43 -57 2 -4 -4 -6 -13 -2 -9 3 -13 12 -8 22 72
177 77 200 78 361 0 130 -5 181 -29 315 -24 131 -29 187 -29 310 0 132 3 157
23 207 12 32 23 61 24 65 1 10 7 18 53 71 41 47 102 87 167 108 63 20 182 14
237 -13z m-1146 -39 c3 -8 2 -12 -4 -9 -6 3 -10 10 -10 16 0 14 7 11 14 -7z
m-277 0 c-3 -3 -12 -4 -19 -1 -8 3 -5 6 6 6 11 1 17 -2 13 -5z m1626 -1 c-7
-2 -19 -2 -25 0 -7 3 -2 5 12 5 14 0 19 -2 13 -5z m-1999 -19 c3 -8 2 -12 -4
-9 -6 3 -10 10 -10 16 0 14 7 11 14 -7z m504 -28 c112 -30 223 -122 279 -231
79 -153 92 -264 67 -580 -33 -414 -23 -537 56 -712 17 -36 30 -68 30 -71 0 -3
-16 10 -36 29 -36 33 -124 159 -124 176 0 5 -8 20 -17 33 -10 14 -18 29 -18
35 -3 37 -19 105 -25 105 -9 0 -6 335 5 578 6 139 5 199 -5 252 -7 39 -17 70
-22 70 -5 0 -6 4 -3 10 6 10 -10 47 -32 68 -7 7 -13 19 -13 26 0 8 -23 34 -52
60 -45 41 -60 48 -84 45 -4 0 -10 5 -15 13 -11 18 -170 19 -177 0 -2 -6 -7
-10 -11 -8 -4 3 -20 -4 -37 -15 -16 -10 -26 -19 -23 -19 4 0 -8 -15 -25 -32
-36 -36 -70 -126 -86 -226 -20 -120 17 -259 87 -327 39 -37 71 -47 119 -34 58
17 124 122 140 226 l7 48 14 -30 c8 -20 11 -49 7 -85 -20 -194 -202 -268 -337
-136 -25 24 -55 63 -68 87 -12 24 -24 46 -28 49 -3 3 -7 16 -9 30 -1 13 -6 27
-11 30 -5 3 -8 68 -8 145 2 136 3 142 35 211 46 97 94 140 201 179 48 18 153
18 219 1z m-571 -38 c-3 -8 -6 -5 -6 6 -1 11 2 17 5 13 3 -3 4 -12 1 -19z
m1603 -22 c0 -3 -4 -8 -10 -11 -5 -3 -10 -1 -10 4 0 6 5 11 10 11 6 0 10 -2
10 -4z m55 -6 c3 -5 1 -10 -4 -10 -6 0 -11 5 -11 10 0 6 2 10 4 10 3 0 8 -4
11 -10z m-288 -6 c-3 -3 -12 -4 -19 -1 -8 3 -5 6 6 6 11 1 17 -2 13 -5z m380
0 c-3 -3 -12 -4 -19 -1 -8 3 -5 6 6 6 11 1 17 -2 13 -5z m-1160 -59 c0 -8 -4
-12 -9 -9 -5 3 -6 10 -3 15 9 13 12 11 12 -6z m1228 -15 c3 -5 1 -10 -4 -10
-6 0 -11 5 -11 10 0 6 2 10 4 10 3 0 8 -4 11 -10z m-798 -6 c-3 -3 -12 -4 -19
-1 -8 3 -5 6 6 6 11 1 17 -2 13 -5z m-520 -110 c-3 -3 -12 -4 -19 -1 -8 3 -5
6 6 6 11 1 17 -2 13 -5z m800 0 c-3 -3 -12 -4 -19 -1 -8 3 -5 6 6 6 11 1 17
-2 13 -5z m826 -1 c-7 -2 -19 -2 -25 0 -7 3 -2 5 12 5 14 0 19 -2 13 -5z
m-2146 -45 c-3 -7 -5 -2 -5 12 0 14 2 19 5 13 2 -7 2 -19 0 -25z m2788 2 c3
-5 1 -10 -4 -10 -6 0 -11 5 -11 10 0 6 2 10 4 10 3 0 8 -4 11 -10z m-2228 -22
c-3 -8 -6 -5 -6 6 -1 11 2 17 5 13 3 -3 4 -12 1 -19z m-27 -24 c0 -3 -7 -1
-15 6 -8 7 -15 17 -15 22 0 5 7 3 15 -6 8 -8 15 -18 15 -22z m806 9 c-7 -7
-26 7 -26 19 0 6 6 6 15 -2 9 -7 13 -15 11 -17z m439 17 c3 -5 1 -10 -4 -10
-6 0 -11 5 -11 10 0 6 2 10 4 10 3 0 8 -4 11 -10z m365 -5 c7 -9 8 -15 2 -15
-5 0 -12 7 -16 15 -3 8 -4 15 -2 15 2 0 9 -7 16 -15z m205 5 c3 -5 1 -10 -4
-10 -6 0 -11 5 -11 10 0 6 2 10 4 10 3 0 8 -4 11 -10z m-2032 -7 c-7 -2 -21
-2 -30 0 -10 3 -4 5 12 5 17 0 24 -2 18 -5z m64 -19 c2 -13 1 -15 -4 -4 -3 8
-11 19 -17 23 -7 6 -6 7 4 4 8 -2 16 -12 17 -23z m1541 19 c-10 -2 -26 -2 -35
0 -10 3 -2 5 17 5 19 0 27 -2 18 -5z m825 0 c-7 -2 -19 -2 -25 0 -7 3 -2 5 12
5 14 0 19 -2 13 -5z m67 -13 c7 -14 7 -20 0 -20 -5 0 -10 6 -10 14 0 8 -6 17
-12 19 -10 4 -10 6 -1 6 7 1 17 -8 23 -19z m50 10 c0 -5 -7 -7 -15 -4 -8 4
-15 8 -15 10 0 2 7 4 15 4 8 0 15 -4 15 -10z m-2390 -40 c0 -5 -7 -10 -15 -10
-8 0 -15 5 -15 10 0 6 7 10 15 10 8 0 15 -4 15 -10z m810 0 c0 -5 -7 -10 -15
-10 -8 0 -15 5 -15 10 0 6 7 10 15 10 8 0 15 -4 15 -10z m470 0 c0 -5 -2 -10
-4 -10 -3 0 -8 5 -11 10 -3 6 -1 10 4 10 6 0 11 -4 11 -10z m1145 0 c-3 -5
-10 -10 -16 -10 -5 0 -9 5 -9 10 0 6 7 10 16 10 8 0 12 -4 9 -10z m-2970 -10
c3 -5 1 -10 -4 -10 -6 0 -11 5 -11 10 0 6 2 10 4 10 3 0 8 -4 11 -10z m805 0
c0 -5 -2 -10 -4 -10 -3 0 -8 5 -11 10 -3 6 -1 10 4 10 6 0 11 -4 11 -10z
m1620 0 c0 -5 -2 -10 -4 -10 -3 0 -8 5 -11 10 -3 6 -1 10 4 10 6 0 11 -4 11
-10z m-385 -9 c3 -5 2 -12 -3 -15 -5 -3 -9 1 -9 9 0 17 3 19 12 6z m737 -40
c156 -60 238 -235 193 -410 -10 -38 -22 -68 -25 -66 -10 6 -51 -71 -42 -80 4
-5 1 -5 -5 -1 -7 4 -23 -2 -35 -14 -40 -38 -111 -84 -169 -110 -38 -17 -54
-30 -52 -40 3 -11 2 -12 -4 -2 -7 10 -25 8 -87 -8 -42 -11 -99 -22 -127 -26
-27 -4 -49 -10 -49 -15 0 -5 -6 -6 -13 -3 -18 6 -325 -42 -399 -63 -32 -8 -58
-20 -58 -25 0 -5 -4 -7 -10 -3 -13 8 -136 -55 -188 -97 -80 -63 -100 -78 -118
-85 -14 -5 -16 -3 -10 13 4 10 8 23 9 28 8 41 140 160 226 205 125 64 198 83
533 140 255 44 345 83 438 188 59 67 80 114 87 191 12 141 -64 223 -225 246
-103 15 -274 -42 -341 -113 -41 -43 -75 -135 -65 -174 13 -56 79 -87 181 -87
62 0 64 1 115 50 43 41 50 53 38 60 -8 5 -10 10 -5 10 31 0 34 -17 9 -53 -14
-21 -22 -43 -18 -49 5 -8 2 -9 -10 -5 -9 4 -31 0 -48 -9 -22 -11 -53 -15 -117
-13 -47 2 -88 6 -91 10 -3 4 -11 9 -19 11 -20 5 -65 51 -79 82 -6 15 -12 46
-12 69 0 24 -6 49 -12 57 -11 12 -10 12 5 1 15 -12 17 -11 17 8 0 28 75 101
145 141 124 71 313 89 437 41z m-3162 -53 c0 -6 -6 -5 -15 2 -8 7 -15 14 -15
16 0 2 7 1 15 -2 8 -4 15 -11 15 -16z m80 2 c0 -5 -2 -10 -4 -10 -3 0 -8 5
-11 10 -3 6 -1 10 4 10 6 0 11 -4 11 -10z m830 0 c8 -5 11 -10 5 -10 -5 0 -17
5 -25 10 -8 5 -10 10 -5 10 6 0 17 -5 25 -10z m2415 0 c3 -6 -1 -7 -9 -4 -18
7 -21 14 -7 14 6 0 13 -4 16 -10z m-2131 -25 c3 -8 1 -15 -4 -15 -6 0 -10 7
-10 15 0 8 2 15 4 15 2 0 6 -7 10 -15z m810 0 c3 -8 1 -15 -4 -15 -6 0 -10 7
-10 15 0 8 2 15 4 15 2 0 6 -7 10 -15z m366 5 c0 -5 -2 -10 -4 -10 -3 0 -8 5
-11 10 -3 6 -1 10 4 10 6 0 11 -4 11 -10z m-2305 -30 c3 -5 1 -10 -4 -10 -6 0
-11 5 -11 10 0 6 2 10 4 10 3 0 8 -4 11 -10z m815 -11 c0 -6 -4 -7 -10 -4 -5
3 -10 11 -10 16 0 6 5 7 10 4 6 -3 10 -11 10 -16z m810 5 c0 -8 -4 -12 -10 -9
-5 3 -10 10 -10 16 0 5 5 9 10 9 6 0 10 -7 10 -16z m805 6 c3 -5 1 -10 -4 -10
-6 0 -11 5 -11 10 0 6 2 10 4 10 3 0 8 -4 11 -10z m-788 -52 c-3 -7 -5 -2 -5
12 0 14 2 19 5 13 2 -7 2 -19 0 -25z m-1890 7 c0 -8 -4 -12 -9 -9 -5 3 -6 10
-3 15 9 13 12 11 12 -6z m2700 -7 c-3 -8 -6 -5 -6 6 -1 11 2 17 5 13 3 -3 4
-12 1 -19z m-1607 -8 c0 -5 -4 -10 -10 -10 -5 0 -10 5 -10 10 0 6 5 10 10 10
6 0 10 -4 10 -10z m1507 -72 c-3 -8 -6 -5 -6 6 -1 11 2 17 5 13 3 -3 4 -12 1
-19z m273 1 c0 -6 -4 -7 -10 -4 -5 3 -10 11 -10 16 0 6 5 7 10 4 6 -3 10 -11
10 -16z m-1770 -45 c0 -2 -7 -4 -15 -4 -8 0 -15 4 -15 10 0 5 7 7 15 4 8 -4
15 -8 15 -10z m805 -2 c-3 -3 -11 0 -18 7 -9 10 -8 11 6 5 10 -3 15 -9 12 -12z
m752 -4 c-3 -8 -6 -5 -6 6 -1 11 2 17 5 13 3 -3 4 -12 1 -19z m73 6 c0 -2 -9
-4 -20 -4 -11 0 -20 4 -20 9 0 5 9 7 20 4 11 -3 20 -7 20 -9z m-865 -23 c-6
-5 -25 10 -25 20 0 5 6 4 14 -3 8 -7 12 -15 11 -17z m-1335 4 c171 -45 295
-159 305 -281 3 -38 0 -47 -33 -81 -46 -47 -97 -63 -188 -62 l-69 1 57 9 c32
4 70 15 86 23 39 20 85 82 79 107 -3 10 0 19 5 19 16 0 2 57 -22 90 -23 32
-109 92 -124 87 -6 -2 -16 2 -23 9 -19 18 -146 37 -206 29 -28 -3 -74 -14
-102 -22 -41 -13 -46 -18 -30 -24 16 -6 14 -8 -12 -8 -40 -1 -75 -41 -99 -113
-53 -158 15 -302 180 -379 84 -39 161 -54 415 -79 118 -11 248 -28 289 -36
159 -33 273 -89 372 -184 66 -63 86 -95 68 -106 -7 -4 -8 -3 -4 4 4 7 4 12 -1
12 -4 0 -23 13 -41 29 -43 38 -173 105 -242 124 -58 16 -181 37 -215 37 -48
-1 -300 22 -401 35 -152 21 -272 62 -352 122 -18 14 -39 22 -47 19 -8 -3 -12
0 -9 7 2 7 -14 30 -36 52 -22 21 -40 45 -40 52 0 7 -4 13 -8 13 -18 0 -53 138
-53 206 0 88 3 106 19 122 6 7 12 20 12 28 0 8 9 24 20 36 10 12 17 26 13 31
-4 6 -1 7 6 3 7 -5 20 -1 29 8 23 20 108 58 152 67 62 12 193 9 250 -6z m1397
-17 c-3 -8 -6 -5 -6 6 -1 11 2 17 5 13 3 -3 4 -12 1 -19z m826 -43 c-3 -9 -8
-14 -10 -11 -3 3 -2 9 2 15 9 16 15 13 8 -4z m-2868 -35 c3 -5 1 -10 -4 -10
-6 0 -11 5 -11 10 0 6 2 10 4 10 3 0 8 -4 11 -10z m2440 -8 c-3 -3 -11 0 -18
7 -9 10 -8 11 6 5 10 -3 15 -9 12 -12z m-2292 1 c-7 -2 -19 -2 -25 0 -7 3 -2
5 12 5 14 0 19 -2 13 -5z m1050 0 c-7 -2 -21 -2 -30 0 -10 3 -4 5 12 5 17 0
24 -2 18 -5z m2554 1 c-3 -3 -12 -4 -19 -1 -8 3 -5 6 6 6 11 1 17 -2 13 -5z
m-2983 -30 c3 -8 2 -12 -4 -9 -6 3 -10 10 -10 16 0 14 7 11 14 -7z m1593 -6
c-3 -8 -6 -5 -6 6 -1 11 2 17 5 13 3 -3 4 -12 1 -19z m-1980 6 c-3 -3 -12 -4
-19 -1 -8 3 -5 6 6 6 11 1 17 -2 13 -5z m2433 -4 c0 -5 -7 -7 -15 -4 -8 4 -15
8 -15 10 0 2 7 4 15 4 8 0 15 -4 15 -10z m-2266 -26 c3 -8 2 -12 -4 -9 -6 3
-10 10 -10 16 0 14 7 11 14 -7z m626 -14 c0 -5 -2 -10 -4 -10 -3 0 -8 5 -11
10 -3 6 -1 10 4 10 6 0 11 -4 11 -10z m1427 -6 c-3 -3 -12 -4 -19 -1 -8 3 -5
6 6 6 11 1 17 -2 13 -5z m810 0 c-3 -3 -12 -4 -19 -1 -8 3 -5 6 6 6 11 1 17
-2 13 -5z m-3457 -68 c0 -3 -4 -8 -10 -11 -5 -3 -10 -1 -10 4 0 6 5 11 10 11
6 0 10 -2 10 -4z m1217 -38 c-3 -7 -5 -2 -5 12 0 14 2 19 5 13 2 -7 2 -19 0
-25z m-803 7 c3 -8 1 -15 -4 -15 -6 0 -10 7 -10 15 0 8 2 15 4 15 2 0 6 -7 10
-15z m1613 -7 c-3 -8 -6 -5 -6 6 -1 11 2 17 5 13 3 -3 4 -12 1 -19z m-1503
-14 c5 -13 3 -14 -6 -7 -7 6 -20 13 -28 16 -10 4 -8 6 6 6 12 1 25 -6 28 -15z
m799 9 c-7 -2 -19 -2 -25 0 -7 3 -2 5 12 5 14 0 19 -2 13 -5z m2430 0 c-7 -2
-19 -2 -25 0 -7 3 -2 5 12 5 14 0 19 -2 13 -5z m-3096 -19 c-3 -3 -12 -4 -19
-1 -8 3 -5 6 6 6 11 1 17 -2 13 -5z m810 0 c-3 -3 -12 -4 -19 -1 -8 3 -5 6 6
6 11 1 17 -2 13 -5z m2123 -24 c0 -5 -2 -10 -4 -10 -3 0 -8 5 -11 10 -3 6 -1
10 4 10 6 0 11 -4 11 -10z m-3445 -20 c3 -5 1 -10 -4 -10 -6 0 -11 5 -11 10 0
6 2 10 4 10 3 0 8 -4 11 -10z m1380 0 c3 -5 1 -10 -4 -10 -6 0 -11 5 -11 10 0
6 2 10 4 10 3 0 8 -4 11 -10z m605 -11 c0 -6 -4 -7 -10 -4 -5 3 -10 11 -10 16
0 6 5 7 10 4 6 -3 10 -11 10 -16z m-1767 4 c-7 -2 -19 -2 -25 0 -7 3 -2 5 12
5 14 0 19 -2 13 -5z m152 -3 c3 -5 2 -10 -4 -10 -5 0 -13 5 -16 10 -3 6 -2 10
4 10 5 0 13 -4 16 -10z m810 0 c3 -5 1 -10 -4 -10 -6 0 -11 5 -11 10 0 6 2 10
4 10 3 0 8 -4 11 -10z m662 -22 c-3 -7 -5 -2 -5 12 0 14 2 19 5 13 2 -7 2 -19
0 -25z m1556 25 c-7 -2 -19 -2 -25 0 -7 3 -2 5 12 5 14 0 19 -2 13 -5z m64
-19 c2 -13 1 -15 -4 -4 -3 8 -11 19 -17 23 -7 6 -6 7 4 4 8 -2 16 -12 17 -23z
m-3240 -16 c-3 -8 -6 -5 -6 6 -1 11 2 17 5 13 3 -3 4 -12 1 -19z m2193 -32 c0
-5 -7 -1 -15 10 -8 10 -14 24 -14 29 0 6 6 1 14 -9 8 -11 15 -24 15 -30z
m-2100 24 c0 -5 -7 -10 -15 -10 -8 0 -15 5 -15 10 0 6 7 10 15 10 8 0 15 -4
15 -10z m810 0 c0 -5 -7 -10 -15 -10 -8 0 -15 5 -15 10 0 6 7 10 15 10 8 0 15
-4 15 -10z m800 0 c0 -5 -4 -10 -10 -10 -5 0 -10 5 -10 10 0 6 5 10 10 10 6 0
10 -4 10 -10z m1630 0 c0 -5 -4 -10 -9 -10 -6 0 -13 5 -16 10 -3 6 1 10 9 10
9 0 16 -4 16 -10z m-1506 -46 c3 -8 2 -12 -4 -9 -6 3 -10 10 -10 16 0 14 7 11
14 -7z m-1040 -12 c3 -5 -1 -9 -9 -9 -8 0 -12 4 -9 9 3 4 7 8 9 8 2 0 6 -4 9
-8z m2183 -14 c-3 -8 -6 -5 -6 6 -1 11 2 17 5 13 3 -3 4 -12 1 -19z m-2397 -3
c0 -8 -2 -15 -4 -15 -2 0 -6 7 -10 15 -3 8 -1 15 4 15 6 0 10 -7 10 -15z m267
-7 c-3 -8 -6 -5 -6 6 -1 11 2 17 5 13 3 -3 4 -12 1 -19z m-1002 -28 c3 -6 -1
-7 -9 -4 -18 7 -21 14 -7 14 6 0 13 -4 16 -10z m1025 0 c0 -5 -2 -10 -4 -10
-3 0 -8 5 -11 10 -3 6 -1 10 4 10 6 0 11 -4 11 -10z m1110 -30 c6 -11 8 -20 6
-20 -3 0 -10 9 -16 20 -6 11 -8 20 -6 20 3 0 10 -9 16 -20z m-813 -12 c-3 -8
-6 -5 -6 6 -1 11 2 17 5 13 3 -3 4 -12 1 -19z m1628 12 c3 -5 1 -10 -4 -10 -6
0 -11 5 -11 10 0 6 2 10 4 10 3 0 8 -4 11 -10z m-2425 -4 c0 -3 -4 -8 -10 -11
-5 -3 -10 -1 -10 4 0 6 5 11 10 11 6 0 10 -2 10 -4z m490 -27 c0 -6 -4 -7 -10
-4 -5 3 -10 11 -10 16 0 6 5 7 10 4 6 -3 10 -11 10 -16z m810 11 c0 -5 -4 -10
-10 -10 -5 0 -10 5 -10 10 0 6 5 10 10 10 6 0 10 -4 10 -10z m-886 -45 c3 -8
1 -15 -3 -15 -5 0 -11 7 -15 15 -3 8 -1 15 3 15 5 0 11 -7 15 -15z m804 -10
c-3 -3 -9 2 -12 12 -6 14 -5 15 5 6 7 -7 10 -15 7 -18z m-704 -1 c3 -8 2 -12
-4 -9 -6 3 -10 10 -10 16 0 14 7 11 14 -7z m810 0 c3 -8 2 -12 -4 -9 -6 3 -10
10 -10 16 0 14 7 11 14 -7z m711 6 c3 -5 1 -10 -4 -10 -6 0 -11 5 -11 10 0 6
2 10 4 10 3 0 8 -4 11 -10z m605 0 c0 -5 -2 -10 -4 -10 -3 0 -8 5 -11 10 -3 6
-1 10 4 10 6 0 11 -4 11 -10z m-3146 -39 c4 -5 -3 -7 -14 -4 -23 6 -26 13 -6
13 8 0 17 -4 20 -9z m1823 -28 c-3 -10 -5 -4 -5 12 0 17 2 24 5 18 2 -7 2 -21
0 -30z m607 28 c4 -5 -3 -7 -14 -4 -23 6 -26 13 -6 13 8 0 17 -4 20 -9z m203
-23 c-3 -7 -5 -2 -5 12 0 14 2 19 5 13 2 -7 2 -19 0 -25z m-100 -20 c-3 -8 -6
-5 -6 6 -1 11 2 17 5 13 3 -3 4 -12 1 -19z m-2310 -44 c-3 -3 -12 -4 -19 -1
-8 3 -5 6 6 6 11 1 17 -2 13 -5z m1626 -1 c-7 -2 -19 -2 -25 0 -7 3 -2 5 12 5
14 0 19 -2 13 -5z m-1350 -70 c-7 -2 -21 -2 -30 0 -10 3 -4 5 12 5 17 0 24 -2
18 -5z m94 -15 c-3 -8 -6 -5 -6 6 -1 11 2 17 5 13 3 -3 4 -12 1 -19z m943 -30
c0 -4 -6 -8 -14 -8 -8 0 -17 4 -20 8 -2 4 4 8 15 8 10 0 19 -4 19 -8z m715 2
c3 -5 1 -10 -4 -10 -6 0 -11 5 -11 10 0 6 2 10 4 10 3 0 8 -4 11 -10z m-1228
-6 c-3 -3 -12 -4 -19 -1 -8 3 -5 6 6 6 11 1 17 -2 13 -5z m116 -1 c-7 -2 -19
-2 -25 0 -7 3 -2 5 12 5 14 0 19 -2 13 -5z m1204 1 c-3 -3 -12 -4 -19 -1 -8 3
-5 6 6 6 11 1 17 -2 13 -5z m-522 -34 c3 -6 -1 -7 -9 -4 -18 7 -21 14 -7 14 6
0 13 -4 16 -10z m1032 -6 c-3 -3 -12 -4 -19 -1 -8 3 -5 6 6 6 11 1 17 -2 13
-5z m-42 -32 c-3 -3 -11 0 -18 7 -9 10 -8 11 6 5 10 -3 15 -9 12 -12z m615 -3
c0 -4 -7 -6 -15 -3 -8 4 -15 10 -15 15 0 4 7 6 15 3 8 -4 15 -10 15 -15z
m-2540 -9 c0 -5 -2 -10 -4 -10 -3 0 -8 5 -11 10 -3 6 -1 10 4 10 6 0 11 -4 11
-10z m917 -102 c-3 -7 -5 -2 -5 12 0 14 2 19 5 13 2 -7 2 -19 0 -25z m1686 -3
c128 -33 235 -114 284 -213 20 -42 28 -74 31 -138 4 -76 2 -87 -22 -129 -38
-65 -88 -111 -144 -134 -28 -12 -31 -16 -20 -30 11 -14 11 -14 -3 -4 -12 10
-26 9 -68 -7 -112 -43 -312 -31 -374 22 -66 57 -87 80 -87 93 0 8 -4 15 -8 15
-12 0 4 118 18 135 15 18 147 85 167 85 12 0 12 -2 1 -14 -8 -7 -24 -17 -36
-20 -12 -4 -20 -12 -16 -17 3 -5 2 -9 -3 -8 -16 4 -43 -13 -43 -27 0 -8 -4
-14 -9 -14 -5 0 -16 -23 -25 -52 -12 -43 -13 -56 -2 -83 29 -69 153 -108 273
-86 127 23 210 75 272 170 31 49 36 64 35 116 -1 60 -15 100 -57 158 -12 15
-26 27 -33 27 -6 0 -15 7 -18 16 -3 8 -10 12 -16 9 -5 -3 -10 -2 -10 4 0 42
-297 65 -327 26 -7 -11 -13 -14 -13 -6 0 14 -49 7 -85 -12 -11 -6 -31 -11 -45
-13 -14 -1 -38 -8 -55 -15 -32 -13 -40 -15 -68 -17 -10 -1 -16 -6 -13 -11 3
-4 -6 -6 -19 -3 -14 2 -25 0 -25 -4 0 -5 -10 -9 -22 -10 -13 0 -70 -11 -128
-23 -176 -38 -359 -18 -478 52 -18 11 -31 21 -29 23 2 2 35 -2 73 -10 152 -29
274 -17 476 44 181 56 306 91 371 105 84 18 230 18 300 0z m-2390 -2 c-7 -2
-19 -2 -25 0 -7 3 -2 5 12 5 14 0 19 -2 13 -5z m810 0 c-7 -2 -21 -2 -30 0
-10 3 -4 5 12 5 17 0 24 -2 18 -5z m820 0 c-7 -2 -21 -2 -30 0 -10 3 -4 5 12
5 17 0 24 -2 18 -5z m-817 -80 c-7 -7 -26 7 -26 19 0 6 6 6 15 -2 9 -7 13 -15
11 -17z m454 11 c0 -2 -7 -4 -15 -4 -8 0 -15 4 -15 10 0 5 7 7 15 4 8 -4 15
-8 15 -10z m-1060 -4 c0 -5 -2 -10 -4 -10 -3 0 -8 5 -11 10 -3 6 -1 10 4 10 6
0 11 -4 11 -10z m393 3 c-7 -2 -19 -2 -25 0 -7 3 -2 5 12 5 14 0 19 -2 13 -5z
m874 -24 c1 -19 1 -20 -4 -4 -3 11 -10 24 -17 28 -7 6 -6 7 4 4 8 -2 16 -14
17 -28z m-1867 -19 c0 -5 -2 -10 -4 -10 -3 0 -8 5 -11 10 -3 6 -1 10 4 10 6 0
11 -4 11 -10z m1145 0 c-3 -5 -10 -10 -16 -10 -5 0 -9 5 -9 10 0 6 7 10 16 10
8 0 12 -4 9 -10z m812 4 c-3 -3 -12 -4 -19 -1 -8 3 -5 6 6 6 11 1 17 -2 13 -5z
m770 0 c-3 -3 -12 -4 -19 -1 -8 3 -5 6 6 6 11 1 17 -2 13 -5z m38 -4 c-3 -5
-10 -10 -16 -10 -5 0 -9 5 -9 10 0 6 7 10 16 10 8 0 12 -4 9 -10z m-2975 -10
c0 -5 -2 -10 -4 -10 -3 0 -8 5 -11 10 -3 6 -1 10 4 10 6 0 11 -4 11 -10z
m-370 -44 c0 -2 -7 -7 -16 -10 -8 -3 -12 -2 -9 4 6 10 25 14 25 6z m47 -28
c-3 -8 -6 -5 -6 6 -1 11 2 17 5 13 3 -3 4 -12 1 -19z m200 6 c-3 -3 -12 -4
-19 -1 -8 3 -5 6 6 6 11 1 17 -2 13 -5z m1903 -24 c0 -5 -2 -10 -4 -10 -3 0
-8 5 -11 10 -3 6 -1 10 4 10 6 0 11 -4 11 -10z m-2070 -4 c0 -11 -19 -15 -25
-6 -3 5 1 10 9 10 9 0 16 -2 16 -4z m1527 -2 c-3 -3 -12 -4 -19 -1 -8 3 -5 6
6 6 11 1 17 -2 13 -5z m1710 0 c-3 -3 -12 -4 -19 -1 -8 3 -5 6 6 6 11 1 17 -2
13 -5z m-3262 -54 c3 -5 1 -10 -4 -10 -6 0 -11 5 -11 10 0 6 2 10 4 10 3 0 8
-4 11 -10z m620 -46 c207 -44 229 -47 375 -48 150 -1 158 1 253 32 54 18 103
32 109 30 6 -2 -18 -23 -53 -46 -35 -23 -70 -47 -76 -52 -7 -6 -13 -9 -13 -6
0 2 -23 -5 -50 -15 -28 -11 -94 -25 -148 -31 -53 -7 -100 -17 -104 -23 -5 -6
-8 -6 -8 2 0 7 -15 14 -32 17 -18 3 -69 10 -113 16 -44 6 -147 25 -230 41
-234 47 -319 48 -450 5 -79 -25 -190 -134 -170 -166 3 -6 2 -10 -3 -10 -13 0
-32 -71 -32 -124 0 -65 20 -105 75 -154 72 -63 140 -86 260 -86 90 -1 106 2
157 27 77 38 118 93 118 158 0 38 -5 51 -22 63 -12 9 -18 16 -13 16 6 0 -17
16 -50 35 -71 41 -66 45 10 10 63 -30 110 -80 124 -132 14 -50 14 -65 -3 -89
-10 -13 -11 -23 -4 -32 8 -9 7 -11 -5 -6 -10 3 -21 -2 -29 -15 -7 -12 -16 -21
-20 -21 -4 0 -23 -10 -43 -21 -23 -14 -32 -24 -25 -29 6 -4 -1 -7 -17 -7 -15
0 -65 -6 -109 -13 -71 -12 -92 -12 -165 3 -45 9 -111 30 -145 47 -34 16 -67
30 -74 30 -8 0 -10 3 -7 6 4 4 -13 29 -38 56 -24 27 -49 65 -56 86 -6 20 -15
42 -19 47 -15 19 -2 149 20 210 28 75 92 140 181 184 156 77 306 78 644 5z
m195 35 c0 -6 -4 -7 -10 -4 -5 3 -10 11 -10 16 0 6 5 7 10 4 6 -3 10 -11 10
-16z m810 5 c0 -8 -4 -12 -10 -9 -5 3 -10 10 -10 16 0 5 5 9 10 9 6 0 10 -7
10 -16z m805 6 c3 -5 1 -10 -4 -10 -6 0 -11 5 -11 10 0 6 2 10 4 10 3 0 8 -4
11 -10z m815 -11 c0 -6 -4 -7 -10 -4 -5 3 -10 11 -10 16 0 6 5 7 10 4 6 -3 10
-11 10 -16z m-1603 -46 c-3 -10 -5 -4 -5 12 0 17 2 24 5 18 2 -7 2 -21 0 -30z
m433 -27 c100 -64 175 -153 238 -281 42 -86 64 -148 137 -380 63 -202 105
-285 180 -361 90 -91 186 -122 290 -93 51 14 109 56 131 94 10 17 22 33 28 38
7 5 6 10 -4 17 -13 8 -12 10 3 10 9 0 18 3 18 8 1 4 4 18 6 32 9 55 4 148 -11
200 -19 64 -24 72 -51 89 -14 9 -15 11 -3 7 12 -3 15 -1 11 10 -3 7 -9 14 -15
14 -5 0 -7 4 -4 9 3 5 -18 31 -48 59 -77 73 -139 86 -205 45 -19 -12 -21 -17
-10 -24 12 -7 11 -9 -2 -9 -26 0 -52 -92 -46 -166 4 -49 2 -62 -7 -55 -20 17
-39 136 -30 189 4 26 8 51 8 57 1 5 22 22 48 38 156 96 376 -60 449 -318 22
-80 18 -210 -10 -267 -13 -27 -27 -48 -31 -48 -5 0 -12 -9 -15 -20 -3 -11 -13
-20 -20 -20 -8 0 -18 -6 -22 -13 -4 -7 -37 -26 -73 -42 -84 -38 -183 -45 -266
-19 -33 10 -65 18 -71 17 -7 0 -10 3 -7 8 3 5 0 9 -5 9 -22 0 -26 2 -34 16 -4
8 -14 14 -21 14 -14 0 -136 126 -136 140 0 5 -4 10 -8 12 -12 5 -87 164 -110
233 -23 68 -59 184 -91 295 -52 177 -105 296 -159 359 -15 17 -45 51 -66 76
-22 25 -44 45 -50 45 -6 0 -17 9 -24 20 -12 19 -11 19 26 3 20 -10 57 -31 82
-47z m377 32 c-3 -8 -6 -5 -6 6 -1 11 2 17 5 13 3 -3 4 -12 1 -19z m-2632 -38
c3 -5 1 -10 -4 -10 -6 0 -11 5 -11 10 0 6 2 10 4 10 3 0 8 -4 11 -10z m2532
-42 c-3 -8 -6 -5 -6 6 -1 11 2 17 5 13 3 -3 4 -12 1 -19z m-2312 -46 c-3 -3
-11 0 -18 7 -9 10 -8 11 6 5 10 -3 15 -9 12 -12z m1899 2 c3 -8 2 -12 -4 -9
-6 3 -10 10 -10 16 0 14 7 11 14 -7z m473 -6 c-3 -8 -6 -5 -6 6 -1 11 2 17 5
13 3 -3 4 -12 1 -19z m73 6 c0 -2 -9 -4 -20 -4 -11 0 -20 4 -20 9 0 5 9 7 20
4 11 -3 20 -7 20 -9z m803 -1 c-7 -2 -19 -2 -25 0 -7 3 -2 5 12 5 14 0 19 -2
13 -5z m-1860 -70 c-53 -57 -58 -63 -101 -131 -53 -83 -103 -240 -152 -487
-22 -110 -48 -222 -57 -250 -28 -88 -80 -178 -134 -235 -29 -30 -52 -59 -50
-63 1 -5 -3 -6 -8 -3 -5 4 -15 1 -23 -6 -18 -17 -73 -44 -122 -59 -57 -17
-170 -6 -236 24 -56 25 -122 86 -134 125 -4 12 -11 22 -16 22 -4 0 -13 30 -20
66 -46 245 96 494 283 494 69 0 126 -38 151 -101 18 -45 21 -209 3 -209 -4 0
-25 -12 -45 -27 l-36 -28 20 35 c10 19 24 40 30 47 15 15 15 139 1 172 -5 14
-10 29 -9 33 1 4 -10 16 -25 27 -29 23 -82 27 -116 10 -32 -17 -97 -82 -97
-96 0 -7 -3 -13 -8 -13 -9 0 -24 -34 -52 -115 -63 -183 -18 -338 111 -380 96
-32 196 -2 277 82 42 45 49 58 35 66 -5 2 -2 2 5 1 7 -2 21 11 32 29 29 47 81
187 85 227 1 19 7 46 13 60 5 14 13 45 17 70 4 25 18 90 31 145 54 218 100
316 190 400 53 50 144 105 176 105 11 0 6 -10 -19 -37z m2224 -15 c-3 -8 -6
-5 -6 6 -1 11 2 17 5 13 3 -3 4 -12 1 -19z m-3202 -28 c3 -5 1 -10 -4 -10 -6
0 -11 5 -11 10 0 6 2 10 4 10 3 0 8 -4 11 -10z m810 0 c3 -6 -1 -7 -9 -4 -18
7 -21 14 -7 14 6 0 13 -4 16 -10z m2440 -8 c-3 -3 -11 0 -18 7 -9 10 -8 11 6
5 10 -3 15 -9 12 -12z m-2868 2 c-3 -3 -12 -4 -19 -1 -8 3 -5 6 6 6 11 1 17
-2 13 -5z m2440 0 c-3 -3 -12 -4 -19 -1 -8 3 -5 6 6 6 11 1 17 -2 13 -5z
m-2080 -36 c-3 -8 -6 -5 -6 6 -1 11 2 17 5 13 3 -3 4 -12 1 -19z m-582 -38 c3
-5 1 -10 -4 -10 -6 0 -11 5 -11 10 0 6 2 10 4 10 3 0 8 -4 11 -10z m205 0 c0
-5 -2 -10 -4 -10 -3 0 -8 5 -11 10 -3 6 -1 10 4 10 6 0 11 -4 11 -10z m-663
-22 c-3 -8 -6 -5 -6 6 -1 11 2 17 5 13 3 -3 4 -12 1 -19z m270 -14 c-3 -3 -12
-4 -19 -1 -8 3 -5 6 6 6 11 1 17 -2 13 -5z m390 -76 c-3 -7 -5 -2 -5 12 0 14
2 19 5 13 2 -7 2 -19 0 -25z m-693 -14 c5 -13 3 -14 -6 -7 -7 6 -20 13 -28 16
-10 4 -8 6 6 6 12 1 25 -6 28 -15z m799 9 c-7 -2 -19 -2 -25 0 -7 3 -2 5 12 5
14 0 19 -2 13 -5z m1620 0 c-7 -2 -19 -2 -25 0 -7 3 -2 5 12 5 14 0 19 -2 13
-5z m810 0 c-7 -2 -19 -2 -25 0 -7 3 -2 5 12 5 14 0 19 -2 13 -5z m-2286 -19
c-3 -3 -12 -4 -19 -1 -8 3 -5 6 6 6 11 1 17 -2 13 -5z m-1322 -44 c3 -5 1 -10
-4 -10 -6 0 -11 5 -11 10 0 6 2 10 4 10 3 0 8 -4 11 -10z m2430 0 c3 -5 1 -10
-4 -10 -6 0 -11 5 -11 10 0 6 2 10 4 10 3 0 8 -4 11 -10z m1184 -24 c-3 -3
-11 5 -18 17 -13 21 -12 21 5 5 10 -10 16 -20 13 -22z m196 24 c3 -5 1 -10 -4
-10 -6 0 -11 5 -11 10 0 6 2 10 4 10 3 0 8 -4 11 -10z m-3440 -10 c3 -5 2 -10
-4 -10 -5 0 -13 5 -16 10 -3 6 -2 10 4 10 5 0 13 -4 16 -10z m810 0 c3 -5 1
-10 -4 -10 -6 0 -11 5 -11 10 0 6 2 10 4 10 3 0 8 -4 11 -10z m602 4 c-3 -3
-12 -4 -19 -1 -8 3 -5 6 6 6 11 1 17 -2 13 -5z m1018 -4 c3 -5 2 -10 -4 -10
-5 0 -13 5 -16 10 -3 6 -2 10 4 10 5 0 13 -4 16 -10z m662 4 c-3 -3 -12 -4
-19 -1 -8 3 -5 6 6 6 11 1 17 -2 13 -5z m-2862 -32 c-3 -3 -11 0 -18 7 -9 10
-8 11 6 5 10 -3 15 -9 12 -12z m1500 -2 c3 -5 1 -10 -4 -10 -6 0 -11 5 -11 10
0 6 2 10 4 10 3 0 8 -4 11 -10z m315 -28 c0 -13 -3 -12 -15 4 -19 25 -19 40 0
24 8 -7 15 -20 15 -28z m505 20 c-3 -3 -11 0 -18 7 -9 10 -8 11 6 5 10 -3 15
-9 12 -12z m290 -2 c10 -11 16 -20 13 -20 -3 0 -13 9 -23 20 -10 11 -16 20
-13 20 3 0 13 -9 23 -20z m-3235 0 c0 -5 -2 -10 -4 -10 -3 0 -8 5 -11 10 -3 6
-1 10 4 10 6 0 11 -4 11 -10z m1150 0 c0 -5 -7 -10 -15 -10 -8 0 -15 5 -15 10
0 6 7 10 15 10 8 0 15 -4 15 -10z m1620 0 c0 -13 -11 -13 -30 0 -12 8 -11 10
8 10 12 0 22 -4 22 -10z m805 0 c-3 -5 -10 -10 -16 -10 -5 0 -9 5 -9 10 0 6 7
10 16 10 8 0 12 -4 9 -10z m-2955 -16 c0 -2 -7 -4 -15 -4 -8 0 -15 4 -15 10 0
5 7 7 15 4 8 -4 15 -8 15 -10z m2597 -56 c-3 -8 -6 -5 -6 6 -1 11 2 17 5 13 3
-3 4 -12 1 -19z m-3070 -10 c-3 -8 -6 -5 -6 6 -1 11 2 17 5 13 3 -3 4 -12 1
-19z m670 0 c-3 -8 -6 -5 -6 6 -1 11 2 17 5 13 3 -3 4 -12 1 -19z m950 0 c-3
-8 -6 -5 -6 6 -1 11 2 17 5 13 3 -3 4 -12 1 -19z m-997 -12 c0 -3 -4 -8 -10
-11 -5 -3 -10 -1 -10 4 0 6 5 11 10 11 6 0 10 -2 10 -4z m-550 -26 c6 -11 8
-20 6 -20 -3 0 -10 9 -16 20 -6 11 -8 20 -6 20 3 0 10 -9 16 -20z m385 -20 c3
-5 1 -10 -4 -10 -6 0 -11 5 -11 10 0 6 2 10 4 10 3 0 8 -4 11 -10z m2430 0 c3
-5 1 -10 -4 -10 -6 0 -11 5 -11 10 0 6 2 10 4 10 3 0 8 -4 11 -10z m-1815 -10
c0 -5 -2 -10 -4 -10 -3 0 -8 5 -11 10 -3 6 -1 10 4 10 6 0 11 -4 11 -10z
m-120 -21 c0 -6 -4 -7 -10 -4 -5 3 -10 11 -10 16 0 6 5 7 10 4 6 -3 10 -11 10
-16z m2425 11 c3 -5 1 -10 -4 -10 -6 0 -11 5 -11 10 0 6 2 10 4 10 3 0 8 -4
11 -10z m-2500 -50 c3 -5 1 -10 -4 -10 -6 0 -11 5 -11 10 0 6 2 10 4 10 3 0 8
-4 11 -10z m2225 0 c0 -5 -2 -10 -4 -10 -3 0 -8 5 -11 10 -3 6 -1 10 4 10 6 0
11 -4 11 -10z m310 -4 c0 -3 -4 -8 -10 -11 -5 -3 -10 -1 -10 4 0 6 5 11 10 11
6 0 10 -2 10 -4z m-1840 -36 c0 -5 -2 -10 -4 -10 -3 0 -8 5 -11 10 -3 6 -1 10
4 10 6 0 11 -4 11 -10z m814 1 c4 -5 -3 -7 -14 -4 -23 6 -26 13 -6 13 8 0 17
-4 20 -9z m-1511 -36 c-3 -9 -8 -14 -10 -11 -3 3 -2 9 2 15 9 16 15 13 8 -4z
m-426 -47 c-3 -8 -6 -5 -6 6 -1 11 2 17 5 13 3 -3 4 -12 1 -19z m53 -32 c0 -3
-4 -8 -10 -11 -5 -3 -10 -1 -10 4 0 6 5 11 10 11 6 0 10 -2 10 -4z m360 -41
c0 -5 -5 -3 -10 5 -5 8 -10 20 -10 25 0 6 5 3 10 -5 5 -8 10 -19 10 -25z
m-407 -2 c-7 -2 -21 -2 -30 0 -10 3 -4 5 12 5 17 0 24 -2 18 -5z m2932 -43 c3
-5 1 -10 -4 -10 -6 0 -11 5 -11 10 0 6 2 10 4 10 3 0 8 -4 11 -10z m-3060 -70
c3 -5 1 -10 -4 -10 -6 0 -11 5 -11 10 0 6 2 10 4 10 3 0 8 -4 11 -10z m1106
-7 c13 -16 12 -17 -3 -4 -10 7 -18 15 -18 17 0 8 8 3 21 -13z m-486 -11 c-3
-3 -11 0 -18 7 -9 10 -8 11 6 5 10 -3 15 -9 12 -12z m2472 -58 c-3 -3 -12 -4
-19 -1 -8 3 -5 6 6 6 11 1 17 -2 13 -5z m-2470 -36 c-3 -8 -6 -5 -6 6 -1 11 2
17 5 13 3 -3 4 -12 1 -19z m2430 0 c-3 -8 -6 -5 -6 6 -1 11 2 17 5 13 3 -3 4
-12 1 -19z m-694 -15 c-7 -2 -21 -2 -30 0 -10 3 -4 5 12 5 17 0 24 -2 18 -5z
m-3 -75 c0 -6 -6 -5 -15 2 -8 7 -15 14 -15 16 0 2 7 1 15 -2 8 -4 15 -11 15
-16z m-1837 5 c-7 -2 -21 -2 -30 0 -10 3 -4 5 12 5 17 0 24 -2 18 -5z m64 -18
c1 -15 0 -15 -3 -3 -3 9 -13 19 -22 22 -12 3 -12 4 3 3 12 -1 21 -10 22 -22z
m2366 18 c-7 -2 -19 -2 -25 0 -7 3 -2 5 12 5 14 0 19 -2 13 -5z m-177 -50 c-7
-7 -26 7 -26 19 0 6 6 6 15 -2 9 -7 13 -15 11 -17z m-2646 -3 c0 -5 -2 -10 -4
-10 -3 0 -8 5 -11 10 -3 6 -1 10 4 10 6 0 11 -4 11 -10z m810 0 c0 -5 -2 -10
-4 -10 -3 0 -8 5 -11 10 -3 6 -1 10 4 10 6 0 11 -4 11 -10z m1620 0 c0 -5 -2
-10 -4 -10 -3 0 -8 5 -11 10 -3 6 -1 10 4 10 6 0 11 -4 11 -10z m-2325 -20
c-3 -5 -12 -10 -18 -10 -7 0 -6 4 3 10 19 12 23 12 15 0z m389 -136 c3 -8 2
-12 -4 -9 -6 3 -10 10 -10 16 0 14 7 11 14 -7z m30 -50 c3 -8 2 -12 -4 -9 -6
3 -10 10 -10 16 0 14 7 11 14 -7z m-207 -56 c-3 -8 -6 -5 -6 6 -1 11 2 17 5
13 3 -3 4 -12 1 -19z m1140 -184 c-3 -3 -12 -4 -19 -1 -8 3 -5 6 6 6 11 1 17
-2 13 -5z m-47 -265 c0 -6 -4 -7 -10 -4 -5 3 -10 11 -10 16 0 6 5 7 10 4 6 -3
10 -11 10 -16z m-50 -39 c0 -5 -7 -10 -15 -10 -8 0 -15 5 -15 10 0 6 7 10 15
10 8 0 15 -4 15 -10z m-35 -110 c3 -5 1 -10 -4 -10 -6 0 -11 5 -11 10 0 6 2
10 4 10 3 0 8 -4 11 -10z m-20 -50 c3 -5 1 -10 -4 -10 -6 0 -11 5 -11 10 0 6
2 10 4 10 3 0 8 -4 11 -10z m22 -57 c-3 -10 -5 -4 -5 12 0 17 2 24 5 18 2 -7
2 -21 0 -30z m-291 -482 c-4 -5 0 -12 6 -14 8 -3 6 -6 -4 -6 -18 -1 -24 10
-11 22 9 10 15 8 9 -2z m-21 -51 c3 -5 1 -10 -4 -10 -6 0 -11 5 -11 10 0 6 2
10 4 10 3 0 8 -4 11 -10z m-225 -262 c0 -4 -4 -8 -9 -8 -6 0 -12 4 -15 8 -3 5
1 9 9 9 8 0 15 -4 15 -9z"/>
</g>
</svg>
