<?xml version="1.0" encoding="utf-8"?>
<svg viewBox="0.511 3.81 425.207 141.092" xmlns="http://www.w3.org/2000/svg">
  <g transform="matrix(1, 0, 0, 1, -84.281738, -345.75)">
    <path fill="none" d="M246.426,349.561c-0.806,0.917-2.002,1.527-3.593,1.527c-0.381,0-0.738-0.038-1.075-0.104 c-0.103,0.127-0.187,0.267-0.303,0.383c-0.934,0.933-2.215,1.464-3.536,1.464c-0.902-0.003-1.744-0.23-2.523-0.683 c-0.337-0.261-0.675-0.521-1.012-0.782c-0.547-0.444-1.033-1.105-1.396-1.806H84.793v141.092H510V349.561H246.426z"/>
    <g>
      <path fill-rule="evenodd" clip-rule="evenodd" fill="#008C99" d="M167.945,465.343c3.087-0.966,6.586,0.084,10.249,0.088 c2.775,0.002,5.669-0.198,8.273,0.647c-1.007,1.074-3.364,0.699-4.955,0.547c-0.562-0.163-0.447,0.416-0.925,0.345 c-5.337-0.233-9.795-0.167-12.319-0.185c-0.049-0.16-0.152-0.276-0.377-0.278C167.909,466.121,167.926,465.73,167.945,465.343"/>
      <path fill="#008C99" d="M500.672,473.679c1.254-1.332,0.551-3.983,0.533-6.31c-0.047-5.438,0.033-11.178,0-16.362 c-0.916-0.791-1.59-1.813-2.666-2.446c0.242-0.585,0.721-0.938,0.801-1.676c0.555,0.268,1.289,0.085,1.598-0.257 c0.373-18.903,0.428-43.461,0.268-63.114c-0.033-3.767-0.135-7.662-0.135-12.368c0-3.127,0.949-16.435-1.598-16.625 c-0.594-0.044-0.689,0.653-1.463,0.773c-0.588,0.092-1.199-0.366-1.598-0.257c-0.803,0.22-0.768,0.954-1.463,1.16 c-1.416-1.009-4.92-0.3-6.789-0.773c3.863-1.082,5.854-1.229,8.486-1.808c0.105-0.501,0.299-1.172-0.234-1.099 c-5.57-0.179-118.086-0.346-196.512-0.4c-6.701-0.004-17.1,1.277-23.516,1.271c-46.612-0.039-85.25-1.23-88.666-1.366 c-2.838-0.116-5.738,0.203-8.648,0c-1.122-0.08-2.315-0.511-3.462-0.516c-0.962-0.005-1.899,0.312-2.929,0.387 c-1.478,0.106-3.1-0.179-4.525-0.129c-1.692,0.059-3.792,0.144-6.122,0.129c-17.393-0.121-35.412,0.707-55.366,0.513 c-0.614-0.403-1.372-0.313-1.864-0.256c-0.258-0.351-0.554-0.666-1.065-0.774c-0.752,0.388-1.507,0.774-2.263,1.159 c-0.207,0.812,0.509,1.182,0,1.547c-0.998-0.151-2.106-0.194-3.194-0.257c-0.495-0.448-0.418-1.383-1.464-1.031 c-0.994,0.334-0.309,3.743-0.265,4.691c0.379,8.39-0.133,21.564-0.133,31.054v20.609c0,2.365-0.485,4.97-0.134,6.828 c0.122,0.649,0.831,0.925,1.064,1.674c0.188,0.596,0.204,1.708,0.267,2.45c0.176,2.094-0.136,4.424,0,6.182 c-1.707,2.516-1.064,8.125-1.064,12.625c0,6.942-0.133,12.653-0.133,19.084c0,4.135-0.306,8.662,0.398,11.463 c-0.507,0.414-0.451,1.275,0,1.677c-0.201,0.448-0.834,0.479-0.666,1.286c1.531,0.186,0.515,1.355,1.065,2.318 c2.46,0.687,5.087,0.387,7.72,0.387h49.112c2.583,0,6.435,0.564,8.251,0c0.62-0.192,0.547-0.729,1.199-1.029 c1.04,0.205,2.931,0.1,4.524,0.128c0.403,0.298,0.402,0.985,0.933,1.159c5.974,0.125,106.885,0.526,188.906,0.867 c-0.029-0.07-0.058-0.14-0.074-0.217c-0.115-0.539-0.723-1.283-0.991-1.737c-0.186-0.314-0.234-0.642-0.187-0.95 c-0.295-0.436-0.61-0.839-0.976-1.158c-0.215-0.188-0.333-0.432-0.39-0.69c-11.249-0.062-30.996-0.18-32.78-0.378 c-8.898-0.99-7.855-0.006-11.758-0.011c-60.506-0.058-116.381-0.196-120.057-0.362c3.674-1.064,8.411,0.49,12.244-0.901 c-0.542-0.83-2.195-0.819-3.592-0.904c-2.576-0.151-5.829-0.228-7.986,0c-0.633-0.481-1.717-0.196-2.263,0.132 c-0.608-0.271-1.463-0.304-2.396-0.257c-0.637-0.032-0.57-0.737-1.063-0.903c-6.429,1.242-13.401,1.095-20.289,1.09 c0.283-3.256,0.538-5.98,0.735-9.75c-0.064-0.514,0.104-4.678-0.067-5.309c-0.34-3.802-0.16-6.337-0.13-9.854 c0.11-12.479-3.433-22.957-7.255-31.45c-1.155-2.561-2.135-5.509-3.533-7.23c-0.8-0.985-2.038-1.366-2.373-2.914 c0.803,0.106,1.006,0.16,1.788,0.554c-1.049-3.199-4.12-4.971-6.897-6.766c-2.634-1.697-5.64-4.089-8.64-4.948 c-1.513-0.434-3.238,0.028-4.469-1.288c-1.012,0.202-2.389-0.798-3.934-1.097c0.807-0.588,1.71,0.126,2.298-0.643 c-2.601-1.301-5.19-2.611-7.729-3.981c-3.412-2.83-5.954-6.956-7.886-11.286c-0.411-0.92-0.691-2.709-2.013-2.721 c-0.79,1.981,2.256,5.237-0.225,6.126c-0.192-0.854-0.246-1.873-0.587-2.554c-0.006,2.37,0.007,4.217-0.039,6.52 c-0.159,8.417,2.2,17.754,1.783,24.85c2.424,5.148,5.157,9.937,7.959,14.643c-0.387,0.544-1.512,0.06-1.054,0.615 c0.801,1.991,3.639,6.93,5.579,8.497c1.86,1.504,3.683,3.365,5.431,4.622c2.823,2.035,6.117,2.986,8.106,5.159 c7.85,3.03,16.699,4.897,20.877,12.19c-0.251,6.653-0.276,12.344-1.114,18.033c-0.896,0.012-1.791,0.023-2.678,0.051 c-0.817,0.024-1.766-0.402-2.663-0.389c-0.574,0.01-1.121,0.283-1.598,0.257c-0.803-0.038-1.607-0.45-2.396-0.514 c-1.783-0.146-3.538,0.219-5.324,0.257c-4.78,0.105-10.1-0.044-14.507-0.128c-4.493-0.087-9.84,0.054-14.507,0 c-0.642-0.006-1.361,0.28-1.996,0.26c-1.044-0.036-2.075-0.61-3.195-0.517c-0.396,0.033-0.787,0.334-1.197,0.385 c-1.818,0.234-4.211-0.359-5.456-0.641c0.829-0.934,3.446,0.139,2.927-2.32c-1.013-0.396-1.522-1.275-2.661-1.545 c0.202-1.111,0.165-2.03-0.933-2.32c0.475-1.152-0.237-1.906-1.064-2.191c-0.776-0.193-0.476,0.658-1.065,0.646 c0.085-0.69-0.409-1.116-1.064-1.416c0.774-6.618,0.849-12.224,0.266-18.183c-0.219-2.229,0.466-4.586-0.665-6.441 c0.28-9.095-0.509-17.786,0.132-27.052c0.26-0.391,0.745-0.568,1.065-0.901c-0.039-2.077,0.611-5.934,0.266-8.244 c-0.512-3.442,0.19-8.842,0-12.884c-0.174-3.731-0.447-7.554-0.665-10.819c-0.099-1.484,0.183-2.913,0.399-4.253 c-0.302-0.619-0.736-4.674-1.597-4.515c0.101-1.472,0.151-2.055,0.4-3.091c0.831,0.311,0.717,1.537,1.33,2.061h1.464 c0.142-1.685-0.151-3.541,0.266-4.896c5.398-0.079,8.917-0.022,13.975,0.13c2.978,0.089,6.078,0.661,8.253-0.13 c2.361-0.222,5.55,0.924,7.187-0.515c-0.978-1.291-3.181-0.98-5.323-1.159c-1.083-0.089-2.152-0.571-3.195-0.645 c-1.784-0.125-3.698,0.355-5.325,0c0.652-0.734,1.741-0.362,2.53-0.386c3.754-0.121,7.336-0.117,11.179,0 c0.51,0.024,0.322,0.722,0.801,0.774c6.416,0.026,12.689,0.259,20.097,0.515c4.625,0.158,9.271,0.06,13.975,0 c14.036-0.181,308.35,1.486,322.801-0.645c0.162-0.675-0.764-0.294-0.666-0.902c0.354-0.002,0.758,0.049,0.932-0.129h0.266 c0.492,5.969-0.477,15.475-0.135,20.103c-0.623,0.919-0.555,3.224-0.396,4.123c-0.592,1.578-0.396,4.815-0.402,6.957 c1.266,1.383,0.285,3.622,0.533,6.31c0.062,0.672,0.365,1.352,0.4,2.062c0.08,1.582-0.234,3.246-0.266,4.638 c-0.037,1.533-0.281,3.605,1.062,3.607c0.615,0.002,0.682-0.431,1.064-0.773c-0.184-3.004,0.275-5.86,0-7.988 c0.738-5.254,0.363-14.07,1.066-19.58c0.387,3.351,0.305,6.261,0,9.146c-0.029,0.302-0.135,0.807-0.135,1.16 c0.004,0.605,0.443,1.282,0.4,1.804c-0.051,0.673-0.826,1.359-0.133,2.189c0,0.429-0.432,0.44-0.398,0.902 c0.424,0.973,0.012,1.972-0.135,3.22c-0.295,2.542-0.252,6.816-0.398,9.662c-0.066,1.277-0.318,2.128,0.533,2.835 c-0.115,4.409-0.658,8.731-0.533,13.526c0.014,0.552,0.285,1.193,0.266,1.673c-0.008,0.174-0.279,0.559-0.266,0.772 c0.021,0.354,0.361,0.769,0.398,1.159c0.057,0.554-0.225,1.049-0.133,1.547c0.115,0.621,0.514,1.139,0.799,1.675 c-0.359,0.882,0,2.364,0,3.349c0.004,2.293-0.596,4.822,0,6.828c-0.049,0.385-0.213,0.652-0.4,0.901 c0.24,5.015-1.078,10.279-0.529,15.966c1.582-1.516,0.715-5.404,1.729-7.471c0.271,3.009-0.416,6.027-0.266,9.146 c0.105,2.203,0.949,4.478,0,6.567c-1.086-1-0.174-3.636-1.996-3.478c-1.357,0.119-0.566,1.675-1.066,2.836 c-0.006,0.639-1.137,0.185-1.33,0.642c-0.764,2.998-0.9,5.204-1.596,8.269c-1.372,0.15-48.608,0.58-96.428,0.664 c-0.148,0.197-0.32,0.376-0.475,0.568c-0.042,0.314-0.153,0.615-0.34,0.846c-0.104,0.129-0.226,0.23-0.343,0.338 c-0.081,0.445-0.374,0.818-0.773,1.037c-0.04,0.267-0.097,0.54-0.148,0.82c-0.059,0.314-0.224,0.556-0.444,0.73 c-0.015,0.062-0.036,0.122-0.054,0.184c0.104,0.098,0.191,0.211,0.267,0.33c55.225,0.223,88.771,0.395,93.145,0.395 c1.76,0,3.861,0.955,5.193,0.635c0.668-0.158,1.141-0.952,1.865-1.158c0.611-0.174,1.682-0.112,2.527-0.131 c2.936-0.061,5.482,0.115,7.186-1.286C501.705,474.053,501.018,474.033,500.672,473.679z M188.386,470.873 c-0.623-0.161-0.867,0.082-1.331-0.131C187.241,470.441,188.557,470.019,188.386,470.873z M186.656,470.613 c-0.102,0.469-0.426-0.015-0.932,0.129C185.457,470.641,186.566,470.398,186.656,470.613z M139.56,417.723 c1.353,1.121,3.031,1.875,4.118,3.285C142.214,420.014,140.373,419.443,139.56,417.723z M154.387,432.785 c-1.151-0.092-0.786-1.28-1.217-1.863c-1.035-1.061-1.73-2.784-2.134-4.059c-0.394,0.041,0.211,0.291,0,0.676 c-1.234-2.24-0.945-2.938-3.958-6.431c-3.015-3.491-14.671-10.302-14.47-10.828c-1.075-0.891-2.114-1.824-2.59-3.383 c-0.037-0.214-0.303-0.17-0.305,0c-0.057-0.568-0.346-1.558-1.218-1.691c-1.389-2.971-3.261-5.401-4.568-8.462 c3.219,4.827,7.433,8.548,10.355,13.705c3.671,0.976,6.054,2.386,8.528,4.741c2.113-0.017,7.567,9.636,9.29,12.177 c-0.024,0.201-0.275,0.146-0.456,0.172c0.003,0.338,0.416,0.217,0.306,0.676c0.153-0.109,0.156-0.389,0.456-0.338 c-0.427,0.896,1.223,1.898,1.066,2.878c0.228,0.028,0.825,0.202,0.762,1.013c-0.201-0.059-0.24-0.296-0.457-0.337 C153.581,432.326,154.524,431.955,154.387,432.785z M103.338,469.068c-0.582-0.123-1.748,0.314-1.731-0.389 C102.15,468.847,103.444,467.912,103.338,469.068z M101.474,391.372c-0.654-2.762-0.186-7.021-0.133-10.564 c0.155-0.022,0.237,0.028,0.266,0.129C101.52,384.632,102.256,388.42,101.474,391.372z M100.942,361.478 c0.186-0.749-0.138-1.228,0.266-1.804h0.399c0.186,0.552,0.142,1.324,0.4,1.804C101.814,361.667,101.135,361.667,100.942,361.478 z M495.746,375.784c-0.49,0.119-0.24-0.68-0.133-0.774c0.217-0.036,0.23,0.123,0.398,0.13 C496.033,375.458,495.945,375.674,495.746,375.784z M498.674,395.493c0.129,0.005,0.105,0.158,0.133,0.258v4.509 c0,1.337,0.564,3.374-0.93,3.478C497.973,401.455,498.281,398.046,498.674,395.493z"/>
      <path fill-rule="evenodd" clip-rule="evenodd" fill="#008C99" d="M190.654,385.307c-1.205-2.283-2.916-3.961-4.471-6.033 c-0.087-1.054-0.309-3.37-1.324-3.621c0.161,13.26-8.466,18.812-14.961,26.235c-0.089,2.38-1.768,4.108-2.477,6.259 c-0.45,1.36-0.039,3.111-1.371,3.542c-0.204,4.274,0.169,9.052-0.83,12.629c1.18,4.451,1.353,8.324,2.062,12.881 c0.649,0.224,0.794,1.166,1.268,1.638c2.772-3.472,4.127-7.913,6.887-11.354c2.755-3.443,6.165-6.034,9.478-9.078 c0.978-2.832,2.752-4.965,4.728-6.925c1.272-4.621,3.652-8.273,4.509-13.261C192.31,394.123,192.599,388.99,190.654,385.307 M174.373,418.055c0.238-5.95,7.619-14.609,9.043-15.945C180.966,405.036,175.27,416.529,174.373,418.055 M186.082,397.183 c-0.373,1.331-1.585,3.136-1.585,3.136s0.675-1.974,1.185-3.409c0.452-1.275,0.37-1.854,0.37-1.854 S186.352,396.212,186.082,397.183"/>
    </g>
    <path fill-rule="evenodd" clip-rule="evenodd" fill="#008C99" d="M445.03,393.28c-0.135-0.621-0.744-1.429-1.068-2.16 c-0.363-0.808-0.557-1.722-0.902-2.437c-0.307-0.591-0.902-0.988-1.43-1.547c-0.562-0.612-0.99-1.356-1.406-1.636 c-0.322-0.204-0.779-0.173-1.225-0.418c-0.99-0.522-1.979-1.676-2.816-2.044c-1.055-0.475-2.768-0.555-3.484-0.139 c-0.207-0.243-0.305-0.467-0.334-0.661c-0.498,0.156-1.006,0.258-1.523,0.318c-0.045,0.136-0.096,0.259-0.154,0.383 c-3.709,0.049-6.785,0.495-9.281,2.301c-0.678,1.398-1.969,2.264-2.744,3.515c-0.438,0.722-0.6,1.832-1.01,2.714 c-0.15,0.331-0.482,0.585-0.594,0.888c-0.469,1.219-0.68,3.768-0.807,4.963c-0.258,2.455,0.637,3.9,1.473,5.387 c0.109,0.195,0.08,0.384,0.176,0.527c0.207,0.287,0.531,0.468,0.713,0.775c0.348,0.6,0.461,1.338,0.801,1.903 c0.875,1.406,2.061,2.583,3.277,3.35c0.266,0.162,0.502,0.497,0.701,0.597c0.889,0.463,2.461,0.666,3.76,1.003 c0.641,0.159,1.479,0.5,2.186,0.579c4.268,0.497,7.602-0.393,10.418-2.587c0.414-0.316,0.846-1.013,1.457-1.587 c1.234-1.136,2.318-2.158,2.469-4.129c1.586-1.529,1.49-4.062,1.4-6.554C445.036,395.502,445.288,394.391,445.03,393.28 M434.364,402.569c-0.65,0.489-1.053,1.588-1.9,1.944c-0.129,0.058-0.527,0.021-0.865,0.096c-2.672,0.624-3.842-0.687-4.744-3.246 c-0.188-0.504-0.604-1.009-0.729-1.376c-0.102-0.361,0-0.818-0.094-1.23c-0.082-0.321-0.338-0.649-0.361-0.857 c-0.029-0.219,0.16-0.511,0.16-0.788c0-0.705-0.096-1.385,0.061-2.352c0.359-2.373,1.166-4.235,2.533-5.436 c2.719-1.283,5.426-0.102,6.564,2.093C435.597,394.992,435.522,399.32,434.364,402.569"/>
    <path fill-rule="evenodd" clip-rule="evenodd" fill="#008C99" d="M385.413,407.901c-2.562-0.259-4.364-1.283-5.808-3.419 c-0.084-0.124-0.159-0.254-0.236-0.382c-0.268-0.11-0.519-0.248-0.762-0.399c-0.265,0.339-0.555,0.652-0.938,0.813 c-0.129,0.058-0.527,0.021-0.865,0.096c-2.672,0.624-3.842-0.687-4.744-3.246c-0.188-0.504-0.604-1.009-0.729-1.376 c-0.102-0.361,0-0.818-0.094-1.23c-0.082-0.321-0.338-0.649-0.361-0.857c-0.029-0.219,0.16-0.511,0.16-0.788 c0-0.705-0.096-1.385,0.061-2.352c0.359-2.373,1.166-4.235,2.533-5.436c2.51-1.184,5.007-0.267,6.271,1.608 c0.323-0.365,0.694-0.699,1.106-0.991c0.61-0.432,1.31-0.695,2.012-0.945c0.035-0.037,0.074-0.07,0.108-0.108 c0.9-1.018,1.681-1.854,2.831-2.642c0.035-0.024,0.073-0.042,0.108-0.065c-0.226-0.292-0.434-0.544-0.639-0.682 c-0.322-0.204-0.779-0.173-1.225-0.418c-0.99-0.522-1.979-1.676-2.816-2.044c-1.055-0.475-2.768-0.555-3.484-0.139 c-0.207-0.243-0.305-0.467-0.334-0.661c-0.498,0.156-1.006,0.258-1.523,0.318c-0.045,0.136-0.096,0.259-0.154,0.383 c-3.709,0.049-6.785,0.495-9.281,2.301c-0.678,1.398-1.969,2.264-2.744,3.515c-0.438,0.722-0.6,1.832-1.01,2.714 c-0.15,0.331-0.482,0.585-0.594,0.888c-0.469,1.219-0.68,3.768-0.807,4.963c-0.258,2.455,0.637,3.9,1.473,5.387 c0.109,0.195,0.08,0.384,0.176,0.527c0.207,0.287,0.531,0.468,0.713,0.775c0.348,0.6,0.461,1.338,0.801,1.903 c0.875,1.406,2.061,2.583,3.277,3.35c0.266,0.162,0.502,0.497,0.701,0.597c0.889,0.463,2.461,0.666,3.76,1.003 c0.641,0.159,1.479,0.5,2.186,0.579c4.268,0.497,7.602-0.393,10.418-2.587c0.269-0.205,0.549-0.572,0.876-0.959 C385.695,407.896,385.557,407.916,385.413,407.901z"/>
    <path fill-rule="evenodd" clip-rule="evenodd" fill="#008C99" d="M358.067,378.494c-0.264,0.039-0.396,0.209-0.605,0.284 c-0.078,0.388,0.145,0.493,0.182,0.778c-0.268,0.174-0.434,0.434-0.867,0.441c-0.176,0.127,0.084,0.294-0.08,0.533 c-0.965,0.031-1.232,0.584-1.553,1.064c-1.014,0.177-1.824-0.567-2.363-0.667c-0.594-0.043-1.713-0.22-2.012-0.842 c-1.332-0.109-1.691-1.682-1.605-2.939c-0.775-1.005-0.023-1.906,0.48-2.707c0.207-0.331,0.246-0.86,0.506-1.142 c0.477-0.502,2.08-1.26,3.121-1.356c1.457-0.122,2.793,0.45,3.846,1.084C358.116,374.289,358.71,376.531,358.067,378.494"/>
    <path fill-rule="evenodd" clip-rule="evenodd" fill="#008C99" stroke="#008C99" d="M392.885,432.664 c0.622,2.614,0.279,5.871-0.58,8.002c-1.353,0.146-2.177,0.41-3.067,0.028c-1.718-0.673-2.013-2.999-3.945-2.989 c-4.2,0.016-0.271,5.193-0.072,7.999c0.198,2.622-1.13,3.614-2.317,5.645c-2.101,0.8-4.854,2.261-7.635,2.503 c-1.425,0.107-3.384-0.301-3.556,1.227c-0.24,2.558,2.15,4.107,4.487,3.867c2.188-0.227,5.011-3.547,7.963-3.516 c1.353,0,2.646,1.383,3.918,1.148c1.123,1.192,2.048,2.621,3.14,3.861c1.509,5.521-0.298,10.199-3.403,12.996 c-5.999,3.123-17.533,5.344-24.163,1.509c-1.749-0.995-3.765-3.119-3.986-5.049c-0.542-4.358,2.169-6.712,4.132-9.091 c-0.019-2.33-2.314-3.047-3.136-5.053c1.635-1.251,4.767-1.467,5.072-3.656c0.264-2.191-1.856-3.326-2.303-5.059 c-0.26-1.021-0.345-2.615-0.233-3.926c0.328-3.797,2.131-6.932,3.812-8.749c1.523-1.627,5.446-2.463,8.837-1.64 c1.975,0.48,3.216,3.006,5.148,3.16c2.425,0.168,5.045-3.799,8.291-4.207C390.368,431.547,391.56,431.623,392.885,432.664 M370.498,440.286c-0.913,2.473,0.114,5.063,1.439,6.44c4.124,4.239,7.508-5.385,4.319-8.221 C373.637,437.368,371.303,438.086,370.498,440.286 M369.509,468.061c3.811,1.27,10.713,5.639,12.946,0.507 c0-0.845-0.015-1.705-0.03-2.558c-0.719-0.969-1.639-1.762-2.25-2.858c-1.02-0.345-2.181-0.505-3.242-0.815 c-1.337,1.03-3.258,1.428-4.927,2.109c-0.779-0.35-1.775-0.459-2.551-0.814C367.805,464.563,368.924,466.605,369.509,468.061"/>
    <path fill-rule="evenodd" clip-rule="evenodd" fill="#008C99" stroke="#008C99" d="M441.906,454.453l-0.098-0.17 c0.003-0.01,0.004-0.021,0.007-0.031c-0.206-0.175-0.366-0.418-0.445-0.742c-0.491-2.012-1.111-5.299-0.521-7.734 c-0.056-0.229-0.109-0.459-0.179-0.691c-0.197-0.66-0.153-1.206,0.052-1.758c0.011-0.244,0.049-0.531,0.062-0.882 c0.031-0.991,0.217-2.06,0.297-3.315c0.127-2.02-0.18-3.782-0.074-5.396c0.154-2.122-0.211-4.881,0-6.713 c0.219-1.91,0.732-4.061,0.262-5.84c-1.617-0.609-3.588-0.356-5.303,0.072c-0.875,0.216-1.395,0.591-2.08,0.729 c-1.576,0.303-3.334-0.132-4.693,0.854c-0.07,1.766-0.629,3.186-0.531,5.312c1.545,0.359,3.055,0.321,4.443,0.729 c0.232,6.309,0.246,15.02-0.133,22.218c-0.068,1.325,0.105,2.622-0.301,3.743c-0.941,0.561-1.895,0.654-3.381,0.754 c-0.414,1.621-0.459,3.568-0.717,5.138c1.893,0.513,4-0.298,5.658-0.073c0.305,0.043,0.564,0.251,0.883,0.251 c0.746-0.015,1.521-0.467,2.344-0.128c0.385-0.611,1.998-0.558,2.09-0.369c0.75-0.521,1.18-0.08,1.648-0.546 c0.008,0.288-0.18,0.474,0.18,0.517c0.473,0.144,0.24-0.389,0.434-0.527c0.291,0.139-0.088,0.398,0.26,0.443 c0.369-0.055-0.068-0.879,0.514-0.717c0.477,0.014,0.213,0.387,0.363,0.604c0.258,0,0.52,0,0.777-0.003 c0.627-1.4,0.291-3.394,0.02-5.05C443.254,454.77,442.355,454.836,441.906,454.453z"/>
    <path fill-rule="evenodd" clip-rule="evenodd" fill="#008C99" stroke="#008C99" d="M313.502,422.229 c0.645,2.313-0.047,5.581-0.154,7.845c0.402,0.702,1.176,1.034,1.682,1.633c1.17,0.153,2.588,0.146,3.572,0.121 c0.367,1.356,0.15,2.751,0.316,4.518c-0.836,0.539-1.869-0.113-2.348,0.218c-0.35-0.101-0.148-0.427-0.615-0.513 c-0.746,0.477-2.127,0.627-2.238,1.854c-0.045,0.55,0.33,1.242,0.199,2c-0.102,0.593-0.637,1.047-0.852,1.587 c-0.666,1.717-0.299,5.155-0.07,7.053c0.18,1.502,0.637,3.332,1.709,4.244c0.969,0.812,2.094,0.805,3.334,1.432 c0.305,0.812,0.248,2.373,0.131,3.658c-0.111,0.475-0.723,0.475-1.119,0.713c-0.605,0.354-2.066,1.213-3.031,1.346 c-1.307,0.186-4.021-0.364-5.154-0.967c-0.672-0.358-1.025-1.108-1.666-1.295c-1.328-1.89-2.121-4.711-2.377-7.725 c-0.086-1.018,0.139-2.062,0.129-3.13c-0.004-1.422-0.574-2.933,0.127-4.181c-0.607-0.694,0.037-1.37,0.145-2.094 c0.209-1.377-0.086-2.834-0.656-3.563c-0.363,0.131-0.549,0.331-0.957,0.358c-0.453,0.053-0.996-0.351-1.398-0.322 c-0.391,0.018-0.408,0.584-0.777,0.265c-0.369-1.543-0.027-2.827-0.07-4.958c0.732-0.681,2.674-0.585,3.469-0.925 c0.305-0.504,0.752-0.867,0.939-1.492c2.148-1.774,3.203-4.612,4.162-7.545C310.865,421.75,312.307,422.135,313.502,422.229"/>
    <path fill-rule="evenodd" clip-rule="evenodd" fill="#008C99" stroke="#008C99" d="M330.806,458.104 c-2.879,0.072-3.262-3.185-3.826-5.789c1.012-3.754,0.615-9.729,0.34-13.939c-0.094-1.364-3.285-0.836-3.783-1.954 c0.152-1.442-0.109-3.504,0.201-4.792c4.303,0,8.748,0.311,12.293,0.699c0.391,1.064,0.029,2.23-0.051,3.227 c-0.145,2.151,0.59,4.201,0.088,6.443c0.381,2.016,0.957,4.709,0.975,7.221c0.008,0.568-0.281,1.131-0.246,1.572 c0.166,1.617,1.914,1.673,3.002,2.484c0.615-0.188,0.832-0.318,1.383-0.455c0.4-0.647,1.045-1.045,1.461-1.762 c0.74-1.257,0.227-2.98,1.076-4.201c0.035-3.06-0.064-5.976-0.652-9.043c-0.898-0.463-2.666-0.15-3.664-0.736 c0.176-1.588-0.332-3.301,0.117-4.707c4.508-0.858,10.061,0.072,15.59-0.389c0.691,0.549,0.461,1.777,0.555,2.699 c0.078,0.895,0.334,1.579,0.115,2.17c-0.654,1.799-4.047-0.012-3.719,2.496c-0.314-0.055,0.031-0.438-0.518-0.343 c-0.287,0.505,0.424,0.665,0.621,0.944c-0.184,3.66,0.178,6.498-0.398,9.681c0.436,0.587,0.014,1.545,0.211,2.093 c0.484,1.348,3.314,0.19,4.021,1.502c0.309,1.022,0.25,3.391,0.244,4.705c-1.018-0.367-2.016-0.678-3.398-0.477 c-0.924,0.136-1.676,0.895-2.525,0.383c-0.824,1.595-3.295,1.378-5.033,1.898c-0.838-1.248-0.463-2.785-1.357-4.164 c-0.814,0.015-0.807,0.814-1.549,0.895c-0.225,1.238-1.119,1.84-2.238,2.211c-0.225,1.021-1.156,1.059-2.174,0.989 c-0.902-0.075-2.641,0.425-4.086,0.399c-0.873-0.015-1.443-0.425-2.188-0.576C331.44,458.997,330.612,458.768,330.806,458.104"/>
    <path fill-rule="evenodd" clip-rule="evenodd" fill="#008C99" d="M259.622,383.458c0.336,2.662,0.096,5.739,0.279,8.271 c0.06,0.729,0.486,1.545-0.057,2.179c-2.024-0.025-4.264,0.095-5.831-0.1c0.104-0.266,0.332,0.126,0.436-0.094 c-0.383-0.185-0.97-0.498-0.535-1.038c-0.57-0.354-0.989-0.875-1.327-1.467c-3.385-1.435-5.745,0.731-6.042,3.921 c-0.124,1.295,0.389,2.626-0.493,3.499c0.493,0.637,0.512,2.16-0.033,2.959c0.46,0.713,0.391,1.438,0.557,2.427 c0.422,0.267,0.872,0.526,1.062,1.03c0.95,0.283,1.859,0.132,2.703,0.568c0.11,1.446,0.63,3.789,0.334,5.318 c-5.559-0.102-11.368,0.711-16.119-0.037c-0.136-0.765-0.142-2.507,0.397-3.149c-0.577-0.231-0.38-1.255-0.549-1.904 c0.479-0.142,1.516-0.195,2.089-0.202c0.295,0.007,0.137-0.447,0.432-0.447c1.045,0.235,1.359-0.659,1.903-0.635 c-0.099-2.584,0.362-5.892-0.123-8.532c0.254-0.65,0.341-1.172-0.104-1.574c0.075-1.14,0.064-2.352,0.302-3.565 c-1.337,0.123-2.968-0.095-4.013-0.383c0.405-1.589-0.081-3.09,0.194-4.966c2.731-0.174,5.55-0.866,7.469-2.107 c1.385,0.036,2.627-0.081,3.819-0.233c0.096,1.338,0.038,3.3-0.02,4.526c-0.261,0.368-0.726,0.844-0.414,1.494 c0.294,0.094,0.366-0.063,0.522,0.083c0.407-0.811,1.267-1.164,1.718-1.944c0.229-0.111,0.256-0.188,0.523-0.093 c-0.005-0.203-0.156-0.254-0.099-0.516c0.851-1.487,2.407-3.289,4.303-3.81c0.906-0.254,1.718-0.135,2.525,0.051 c0.371-0.441,1.061-0.587,1.389-0.013C257.74,382.825,258.942,383.062,259.622,383.458"/>
    <path fill-rule="evenodd" clip-rule="evenodd" fill="#008C99" stroke="#008C99" d="M297.009,431.398 c0.336,2.662,0.096,5.739,0.279,8.271c0.059,0.729,0.486,1.545-0.057,2.179c-2.025-0.024-4.264,0.095-5.832-0.101 c0.104-0.266,0.332,0.127,0.436-0.094c-0.383-0.185-0.969-0.498-0.535-1.037c-0.57-0.354-0.988-0.875-1.326-1.468 c-3.385-1.435-5.746,0.731-6.043,3.921c-0.123,1.295,0.389,2.627-0.492,3.5c0.492,0.637,0.512,2.159-0.033,2.959 c0.459,0.713,0.391,1.438,0.557,2.426c0.422,0.268,0.871,0.526,1.061,1.031c0.951,0.282,1.859,0.131,2.703,0.567 c0.111,1.446,0.631,3.789,0.334,5.317c-5.559-0.102-11.367,0.711-16.119-0.037c-0.135-0.764-0.141-2.506,0.398-3.148 c-0.578-0.23-0.381-1.255-0.549-1.904c0.479-0.142,1.516-0.194,2.088-0.201c0.295,0.007,0.137-0.447,0.432-0.447 c1.045,0.234,1.359-0.659,1.904-0.635c-0.1-2.584,0.361-5.893-0.123-8.532c0.254-0.65,0.34-1.173-0.105-1.574 c0.076-1.14,0.064-2.353,0.303-3.565c-1.338,0.123-2.969-0.095-4.014-0.383c0.406-1.589-0.08-3.09,0.195-4.966 c2.73-0.174,5.549-0.866,7.469-2.106c1.385,0.035,2.627-0.082,3.818-0.233c0.096,1.338,0.039,3.3-0.02,4.526 c-0.26,0.367-0.725,0.844-0.414,1.494c0.295,0.094,0.367-0.063,0.523,0.082c0.406-0.811,1.266-1.164,1.717-1.943 c0.229-0.111,0.256-0.188,0.523-0.094c-0.004-0.203-0.156-0.254-0.098-0.516c0.85-1.486,2.406-3.289,4.303-3.811 c0.906-0.254,1.717-0.135,2.525,0.052c0.371-0.44,1.061-0.587,1.389-0.013C295.126,430.765,296.329,431.002,297.009,431.398"/>
    <path fill-rule="evenodd" clip-rule="evenodd" fill="#008C99" d="M357.211,384.125c0.26,3.917,0.223,8.99,0.277,14.116 c0,0.75,0.268,1.43,0.377,2.605c0.154,1.696-0.537,3.878-0.115,4.621c0.623,1.058,2.877,0.251,3.5,1.082 c0.334,1.753-0.1,3.401-0.107,4.628c-5.486-0.261-11.303-0.543-16.992-0.298c-0.818-1.82-0.148-4.345,0.967-5.498 c0.984-0.462,2.643-0.224,3.562-0.925c0.242-2.28,0.086-4.4,0.162-6.973c0.08-2.555,0.279-4.973-0.523-6.87 c-1.162-0.007-2.139-0.22-3.055-0.482c0.037-1.562-0.35-3.813-0.336-5.399c0.877-0.023,1.389,0.338,2.01,0.582 C349.969,384.658,353.369,383.3,357.211,384.125"/>
    <path fill-rule="evenodd" clip-rule="evenodd" fill="#008C99" d="M240.963,369.594c0.537,1.226,0.362,2.366,0.397,3.828 c0.044,1.187,0.081,2.363,0.14,3.578c0.049,1.082-0.261,2.114-0.301,3.132c-0.039,0.649,0.242,1.415-0.328,1.927 c-2.034-0.02-3.624,0.288-5.4,0.416c-0.996-1.615-1.918-3.325-2.763-5.095c-0.801-0.365-2.419-0.49-3.054-0.058 c-0.107,1.648,0.131,3.162,0.073,4.967c-0.087,2.339-0.513,4.584-0.521,6.893c-0.007,0.599,0.123,1.172,0.108,1.745 c-0.021,1.21,0.079,2.657-0.027,4.19c-0.118,1.657-0.532,3.318-0.637,4.879c-0.015,0.345,0.173,0.766,0.194,1.21 c0.061,1.062-0.388,2.067,0.13,3.056c1.062,0.822,2.83,0.762,4.116,0.996c0.396,1.914,0.092,3.513,0.244,5.746 c-1.645-0.109-3.29,0.087-4.967,0.056c-0.879-0.015-1.766-0.318-2.69-0.303c-1.675,0.006-3.394,0.159-5.053,0.159 c-0.997-0.015-1.91-0.021-2.871,0.03c-1.54,0.076-3.032,0.123-4.274-0.384c-0.008-0.806,0.525-1.082,0.576-1.826 c-0.021-0.179-0.23,0.122-0.346-0.085c0.211-0.704,0.226-1.677,0.233-2.624c0.112-0.098,0.155-0.259,0.343-0.082 c0.064-0.428-0.389-0.305-0.281-0.782c1.301-0.485,2.698-0.098,4.354-0.589c0.875-0.522-0.141-2.078,0.49-2.788 c0.008-1.157,0.106-2.57,0.295-3.668c0.053-0.259,0.015-0.822,0.428-0.787c-0.782-0.611-0.327-1.928-0.396-3.212 c-0.271-5.097-0.124-9.642,0.076-13.943c0.058-1.336,0.167-2.692-0.324-3.911c-0.807,0.099-3.009-0.405-3.996,0.046 c-0.636,0.293-0.729,2.209-0.996,3.417c-0.153,0.617,0.069,1.731-0.326,2.265c-1.85,0.377-4.483,0.529-6.613,0.354 c0.565-4.092,0.225-8.509,1.05-12.218c0.726-0.245,1.479,0.108,2.01,0.323c0.767-0.635,1.712-0.362,2.441,0.144 c0.532,0.064,1.237-0.202,1.4,0.154c0.311,0.021,0.223-0.356,0.507-0.356c0.489,0.045,1.024,0.273,0.966,0.16 c0.297,0.338,0.821-0.369,1.395,0.073c2.786-0.781,6.22-0.426,9.402-0.649c1.252-0.086,2.526-0.24,3.914-0.145 c2.547,0.186,5.189-0.217,7.139,0.243c0.345-0.154,0.742-0.243,1.044-0.43C239.269,370.121,240.088,369.779,240.963,369.594"/>
    <path fill-rule="evenodd" clip-rule="evenodd" fill="#008C99" d="M275.983,382.705c0.066,0.271-0.143,0.262-0.068,0.532 c0.426-0.218,0.686-0.411,1.291-0.277c0.182,0.163,0.391,0.317,0.539,0.513c0.629,0.019,1.137,0.18,1.314,0.679 c0.879,0.145,1.469,0.613,2.188,0.925c1.422,1.74,2.086,4.078,2.182,6.682c0.166,4.2,0.359,8.273-0.008,12.632 c0.074,0.194,0.277,0.261,0.439,0.345c0.625-0.229,1.088-0.612,1.395-1.15c0.078,0,0.166-0.011,0.258-0.011 c1.07,1.176,0.463,3.089,0.404,4.611c-0.041,1.055,0.314,2.11-0.223,2.797c-3.559,0.128-6.641-0.226-10.025-0.48 c-0.051-1.419-0.287-2.641-0.398-3.997c0.102-0.1,0.15-0.246,0.434-0.182c-0.076-0.546-0.254-0.971-0.799-1.03 c-1.127,2.026-2.339,3.961-3.579,5.883c-1.358,0.121-2.6,0.057-3.396,0.57c-0.257-0.014-0.385-0.188-0.603-0.261 c-1.056,0.326-1.932-0.279-2.717-0.482c-0.387-0.103-0.743,0.014-1.046-0.071c-0.452-0.132-0.66-0.549-1.139-0.769 c-0.609-0.286-1.295-0.242-1.584-1.023c0.225-0.435-0.026-0.839-0.28-1.04c-0.273-0.016-0.29,0.239-0.604,0.183 c-0.394-0.537-1.191-1.122-0.81-2.167c-0.578-0.463-0.357-1.393-0.376-2.261c0.131-0.229,0.47-0.281,0.686-0.445 c-1.395-1.091,0.822-3.944,2.03-4.735c0.403-1.322,1.917-1.566,2.842-2.391c0.289,0,0.577,0,0.874-0.009 c0.253-0.114-0.325-0.079-0.195-0.351c1.322-0.845,2.716-1.605,4.512-1.979c0.187,0.275,0.508,0.433,1.056,0.34 c0.039-0.421-0.688,0.231-0.625-0.34c1.055-0.222,2.83-0.289,3.741-0.577c0.461-0.178,0.785-0.662,1.213-0.623 c0.062-0.444-0.558-0.199-0.528-0.603c-0.093-0.377,0.429-0.161,0.429-0.44c0.133-0.751-0.341-0.894-0.63-1.212 c-0.13-0.564-0.203-1.314-0.627-1.731c-0.292-0.291-1.747-0.977-2.543-0.927c-0.883,0.066-1.59,0.658-2.172,0.377 c-1.037,0.512-1.487,1.588-2.326,2.301c0.216,0.765-0.504,1.48-0.317,2.265c-0.556,0.24-0.503,0.441-1.03,0.801 c-0.854,0.024-1.891-0.403-2.521-0.046c-0.35-0.39-1.068-0.39-1.668-0.515c-0.146-0.692,0.777-0.326,0.679-0.967 c-0.161-0.267-0.511-0.346-0.611-0.679c0.261-1.712-0.273-3.053-0.067-4.532c0.109-0.117,0.409-0.117,0.523-0.007 c0.069-0.628,0.795-0.607,1.032-1.054c0.989,0.15,1.787-1.213,2.777-0.743c0.292-0.056,0.087-0.607,0.339-0.702 c0.275-0.082,0.267,0.14,0.436,0.166c0.95-0.362,1.719-0.901,2.509-1.428C271.072,382.927,273.418,382.231,275.983,382.705 M272.89,397.831c-1.713,0.185-3.031,1.449-4.777,1.882c0.292,0.489-0.405,0.849-0.594,1.321 c-0.439,1.156-0.135,1.951,0.387,2.612c0.358,0.068,0.451,0.068,0.783-0.013c1.019,0.477,2.217,0.326,3.06,0.138 c2.198-0.526,2.83-2.045,3.074-4.229c0.161-1.417-0.373-2.447-1.946-2.324C272.61,397.456,273.159,397.576,272.89,397.831"/>
    <path fill-rule="evenodd" clip-rule="evenodd" fill="#008C99" d="M405.314,382.705c0.066,0.271-0.143,0.262-0.068,0.532 c0.426-0.218,0.686-0.411,1.291-0.277c0.182,0.163,0.391,0.317,0.539,0.513c0.629,0.019,1.137,0.18,1.314,0.679 c0.879,0.145,1.469,0.613,2.188,0.925c1.422,1.74,2.086,4.078,2.182,6.682c0.166,4.2,0.359,8.273-0.008,12.632 c0.074,0.194,0.277,0.261,0.439,0.345c0.625-0.229,1.088-0.612,1.395-1.15c0.078,0,0.166-0.011,0.258-0.011 c1.07,1.176,0.463,3.089,0.404,4.611c-0.041,1.055,0.314,2.11-0.223,2.797c-3.559,0.128-6.641-0.226-10.025-0.48 c-0.051-1.419-0.287-2.641-0.399-3.997c0.103-0.1,0.151-0.246,0.435-0.182c-0.076-0.546-0.254-0.971-0.8-1.03 c-1.127,2.026-2.339,3.961-3.579,5.883c-1.358,0.121-2.6,0.057-3.396,0.57c-0.257-0.014-0.385-0.188-0.603-0.261 c-1.056,0.326-1.932-0.279-2.717-0.482c-0.387-0.103-0.743,0.014-1.046-0.071c-0.452-0.132-0.66-0.549-1.139-0.769 c-0.609-0.286-1.295-0.242-1.584-1.023c0.225-0.435-0.026-0.839-0.28-1.04c-0.273-0.016-0.29,0.239-0.604,0.183 c-0.394-0.537-1.191-1.122-0.81-2.167c-0.578-0.463-0.357-1.393-0.376-2.261c0.131-0.229,0.47-0.281,0.686-0.445 c-1.395-1.091,0.822-3.944,2.03-4.735c0.403-1.322,1.917-1.566,2.842-2.391c0.289,0,0.577,0,0.874-0.009 c0.253-0.114-0.325-0.079-0.195-0.351c1.322-0.845,2.716-1.605,4.512-1.979c0.187,0.275,0.508,0.433,1.056,0.34 c0.039-0.421-0.688,0.231-0.625-0.34c1.055-0.222,2.83-0.289,3.741-0.577c0.461-0.178,0.785-0.662,1.213-0.623 c0.062-0.444-0.558-0.199-0.528-0.603c-0.093-0.377,0.429-0.161,0.429-0.44c0.133-0.751-0.341-0.894-0.63-1.212 c-0.13-0.564-0.203-1.314-0.627-1.731c-0.292-0.291-1.747-0.977-2.543-0.927c-0.883,0.066-1.59,0.658-2.172,0.377 c-1.037,0.512-1.487,1.588-2.326,2.301c0.216,0.765-0.504,1.48-0.317,2.265c-0.556,0.24-0.503,0.441-1.03,0.801 c-0.854,0.024-1.891-0.403-2.521-0.046c-0.35-0.39-1.068-0.39-1.668-0.515c-0.146-0.692,0.777-0.326,0.679-0.967 c-0.161-0.267-0.511-0.346-0.611-0.679c0.261-1.712-0.273-3.053-0.067-4.532c0.109-0.117,0.409-0.117,0.523-0.007 c0.069-0.628,0.795-0.607,1.032-1.054c0.989,0.15,1.787-1.213,2.777-0.743c0.292-0.056,0.087-0.607,0.339-0.702 c0.275-0.082,0.267,0.14,0.436,0.166c0.95-0.362,1.719-0.901,2.509-1.428C400.402,382.927,402.748,382.231,405.314,382.705 M402.22,397.831c-1.713,0.185-3.031,1.449-4.777,1.882c0.292,0.489-0.405,0.849-0.594,1.321 c-0.439,1.156-0.135,1.951,0.387,2.612c0.358,0.068,0.451,0.068,0.783-0.013c1.019,0.477,2.217,0.326,3.06,0.138 c2.198-0.526,2.83-2.045,3.074-4.229c0.161-1.417-0.373-2.447-1.946-2.324C401.94,397.456,402.489,397.576,402.22,397.831"/>
    <path fill-rule="evenodd" clip-rule="evenodd" fill="#008C99" stroke="#008C99" d="M412.927,431.407 c0.066,0.271-0.143,0.263-0.068,0.532c0.426-0.219,0.686-0.411,1.291-0.277c0.182,0.163,0.391,0.317,0.539,0.514 c0.629,0.019,1.137,0.18,1.314,0.679c0.879,0.146,1.469,0.612,2.188,0.925c1.422,1.74,2.086,4.078,2.182,6.682 c0.166,4.201,0.359,8.273-0.008,12.633c0.074,0.193,0.277,0.261,0.439,0.345c0.625-0.229,1.088-0.612,1.395-1.149 c0.078,0,0.166-0.012,0.258-0.012c1.07,1.176,0.463,3.089,0.404,4.611c-0.041,1.055,0.314,2.109-0.223,2.797 c-3.559,0.128-6.641-0.227-10.025-0.48c-0.051-1.418-0.287-2.641-0.399-3.996c0.103-0.101,0.151-0.246,0.435-0.183 c-0.076-0.546-0.254-0.972-0.8-1.03c-1.127,2.026-2.339,3.961-3.579,5.883c-1.358,0.121-2.6,0.058-3.396,0.57 c-0.257-0.014-0.385-0.188-0.603-0.261c-1.056,0.326-1.932-0.279-2.717-0.481c-0.387-0.104-0.743,0.014-1.046-0.072 c-0.452-0.131-0.66-0.549-1.139-0.769c-0.609-0.286-1.295-0.241-1.584-1.022c0.225-0.436-0.026-0.84-0.28-1.041 c-0.273-0.016-0.29,0.24-0.604,0.184c-0.394-0.537-1.191-1.122-0.81-2.167c-0.578-0.463-0.357-1.394-0.376-2.261 c0.131-0.229,0.47-0.281,0.686-0.445c-1.395-1.091,0.822-3.943,2.03-4.734c0.403-1.322,1.917-1.566,2.842-2.392 c0.289,0,0.577,0,0.874-0.009c0.253-0.114-0.325-0.079-0.195-0.352c1.322-0.845,2.716-1.604,4.512-1.979 c0.187,0.275,0.508,0.434,1.056,0.34c0.039-0.421-0.688,0.23-0.625-0.34c1.055-0.223,2.83-0.289,3.741-0.577 c0.461-0.178,0.785-0.662,1.213-0.623c0.062-0.444-0.558-0.198-0.528-0.603c-0.093-0.377,0.429-0.161,0.429-0.44 c0.133-0.751-0.341-0.894-0.63-1.212c-0.13-0.564-0.203-1.314-0.627-1.73c-0.292-0.291-1.747-0.978-2.543-0.928 c-0.883,0.066-1.59,0.658-2.172,0.377c-1.037,0.512-1.487,1.588-2.326,2.301c0.216,0.766-0.504,1.48-0.317,2.266 c-0.556,0.24-0.503,0.441-1.03,0.801c-0.854,0.023-1.891-0.402-2.521-0.046c-0.35-0.39-1.068-0.39-1.668-0.515 c-0.146-0.692,0.777-0.326,0.679-0.967c-0.161-0.268-0.511-0.347-0.611-0.68c0.261-1.712-0.273-3.053-0.067-4.531 c0.109-0.117,0.409-0.117,0.523-0.008c0.069-0.628,0.795-0.607,1.032-1.054c0.989,0.149,1.787-1.213,2.777-0.743 c0.292-0.057,0.087-0.607,0.339-0.702c0.275-0.082,0.267,0.14,0.436,0.166c0.95-0.362,1.719-0.901,2.509-1.428 C408.015,431.629,410.36,430.934,412.927,431.407 M409.832,446.533c-1.713,0.186-3.031,1.449-4.777,1.883 c0.292,0.488-0.405,0.849-0.594,1.32c-0.439,1.156-0.135,1.951,0.387,2.612c0.358,0.067,0.451,0.067,0.783-0.013 c1.019,0.477,2.217,0.326,3.06,0.138c2.198-0.526,2.83-2.046,3.074-4.229c0.161-1.417-0.373-2.447-1.946-2.324 C409.553,446.158,410.102,446.278,409.832,446.533"/>
    <path fill-rule="evenodd" clip-rule="evenodd" fill="#008C99" stroke="#008C99" d="M268.585,441.221 c-0.135-0.621-0.744-1.43-1.068-2.16c-0.363-0.809-0.557-1.723-0.902-2.438c-0.307-0.591-0.902-0.988-1.43-1.547 c-0.562-0.611-0.99-1.355-1.406-1.636c-0.322-0.204-0.779-0.173-1.225-0.418c-0.99-0.522-1.979-1.677-2.816-2.044 c-1.055-0.475-2.768-0.555-3.484-0.139c-0.207-0.244-0.305-0.467-0.334-0.662c-0.498,0.156-1.006,0.259-1.523,0.318 c-0.045,0.137-0.096,0.26-0.154,0.383c-3.709,0.049-6.786,0.496-9.282,2.301c-0.678,1.398-1.969,2.265-2.744,3.516 c-0.438,0.723-0.6,1.832-1.01,2.714c-0.15,0.331-0.482,0.585-0.594,0.888c-0.469,1.22-0.68,3.769-0.807,4.963 c-0.258,2.455,0.637,3.9,1.473,5.388c0.109,0.194,0.08,0.384,0.176,0.526c0.207,0.287,0.531,0.469,0.713,0.775 c0.348,0.6,0.461,1.338,0.801,1.903c0.875,1.405,2.061,2.583,3.277,3.35c0.266,0.162,0.502,0.497,0.701,0.597 c0.889,0.463,2.461,0.666,3.76,1.004c0.641,0.158,1.479,0.5,2.186,0.578c4.268,0.498,7.602-0.393,10.418-2.586 c0.414-0.316,0.846-1.014,1.457-1.588c1.234-1.136,2.318-2.158,2.469-4.129c1.586-1.529,1.49-4.062,1.4-6.554 C268.591,443.442,268.843,442.33,268.585,441.221 M257.919,450.51c-0.65,0.488-1.053,1.588-1.9,1.943 c-0.129,0.059-0.527,0.021-0.865,0.096c-2.672,0.625-3.842-0.687-4.745-3.246c-0.188-0.504-0.604-1.008-0.729-1.375 c-0.102-0.361,0-0.818-0.094-1.23c-0.082-0.32-0.338-0.648-0.361-0.857c-0.029-0.219,0.16-0.511,0.16-0.787 c0-0.705-0.096-1.385,0.061-2.353c0.359-2.373,1.166-4.235,2.534-5.437c2.719-1.282,5.426-0.102,6.564,2.094 C259.151,442.932,259.077,447.26,257.919,450.51"/>
    <path fill-rule="evenodd" clip-rule="evenodd" fill="#008C99" d="M312.17,384.83c2.879-0.072,3.262,3.185,3.826,5.789 c-1.012,3.754-0.615,9.729-0.34,13.94c0.094,1.364,3.285,0.836,3.783,1.954c-0.152,1.443,0.109,3.504-0.201,4.792 c-4.303,0-8.749-0.311-12.294-0.699c-0.391-1.064-0.029-2.231,0.051-3.227c0.145-2.151-0.59-4.201-0.088-6.443 c-0.381-2.016-0.957-4.709-0.975-7.221c-0.008-0.568,0.281-1.131,0.246-1.572c-0.166-1.618-1.914-1.673-3.002-2.485 c-0.615,0.188-0.832,0.319-1.383,0.456c-0.4,0.647-1.045,1.045-1.461,1.761c-0.74,1.257-0.227,2.98-1.076,4.202 c-0.035,3.059,0.064,5.975,0.652,9.042c0.898,0.463,2.666,0.151,3.664,0.737c-0.176,1.588,0.332,3.301-0.117,4.707 c-4.508,0.858-10.061-0.073-15.59,0.389c-0.691-0.549-0.461-1.778-0.555-2.7c-0.078-0.894-0.334-1.579-0.115-2.169 c0.654-1.799,4.047,0.011,3.719-2.497c0.314,0.055-0.031,0.437,0.518,0.343c0.287-0.505-0.424-0.665-0.621-0.944 c0.184-3.66-0.178-6.499,0.398-9.681c-0.436-0.587-0.014-1.545-0.211-2.093c-0.484-1.347-3.314-0.19-4.021-1.501 c-0.309-1.023-0.25-3.392-0.244-4.706c1.018,0.368,2.016,0.678,3.398,0.476c0.924-0.135,1.676-0.894,2.525-0.382 c0.824-1.595,3.295-1.378,5.033-1.899c0.838,1.248,0.463,2.785,1.357,4.165c0.814-0.015,0.807-0.815,1.549-0.895 c0.225-1.239,1.119-1.84,2.238-2.211c0.225-1.021,1.156-1.059,2.174-0.989c0.902,0.075,2.641-0.425,4.086-0.399 c0.873,0.014,1.443,0.424,2.188,0.575C311.535,383.937,312.363,384.167,312.17,384.83"/>
    <path fill-rule="evenodd" clip-rule="evenodd" fill="#008C99" d="M341.701,384.778c0.262,2.202-0.154,4.672-0.162,7.147 c-1.312,0.102-2.627,0.175-4.26,0.316c-0.652-0.292-0.627-1.005-0.893-1.558c-0.66-1.298-1.998-2.069-3.35-2.655 c-1.561,0.231-3.549-0.745-4.707,0.246c-0.555,1.335,0.379,2.289,0.83,3.128c2.467,1.072,5.102,2.183,7.361,3.21 c1.111-0.139,1.627,0.158,2.621,0.752c0.996,0.567,1.543,0.966,2.295,1.877c0.875,1.06,2.086,2.885,1.986,5.109 c-0.018,0.416-0.27,0.894-0.328,1.319c-0.078,0.504,0,1.027-0.068,1.482c-0.234,1.484-1.102,2.805-1.863,3.94 c-0.701,0.209-0.969,0.787-1.551,1.06c-0.941,0.468-2.049,0.346-3.049,0.655c-0.273,0.089-0.498,0.376-0.773,0.447 c-0.199,0.052-0.482-0.047-0.691,0.009c-0.711,0.218-1.328,0.688-2.35,0.648c-1.648-0.076-3.461-0.665-5.242-0.977 c-2.309-0.415-4.877-1.476-6.734-2.347c-0.035-2.009-0.764-5.234,0.34-6.888c-0.305-0.129-0.775-0.619-0.367-0.952 c0.98-0.179,2.791-0.521,4.004-0.316c0.225,0.373-0.07,0.64-0.158,0.959c0.115,0.29,0.65,0.157,0.873,0.337 c-0.164,0.904,0.439,1.097,0.814,1.732c0.244,0.435,0.348,0.889,0.527,1.122c0.461,0.606,1.984,1.665,3.258,1.79 c2.609,0.243,6.863-0.463,5.189-3.034c-3.549-2.012-8.143-2.942-10.889-5.78c-1.84-0.398-3.275-1.881-3.793-3.87 c-0.469-1.767-0.15-4.216,0.689-6.105c0.387-0.846,1.131-1.516,1.902-1.944c0.496-0.771,1.312-1.241,2.143-1.679 c0.383-0.117,0.391-0.031,0.697,0.069c0-0.14,0.061-0.502,0.35-0.604c2.992-0.629,5.896-1.378,8.955-0.901 C337.461,383.206,339.352,384.125,341.701,384.778"/>
    <g>
      <path fill-rule="evenodd" clip-rule="evenodd" fill="#008C99" d="M374.545,415.89c0,3.453-2.648,5.453-6.263,5.453"/>
      <g>
        <g>
          <path fill="#008C99" d="M370.679,416.365c-0.014,0.55-0.078,1.069-0.213,1.603c0.012-0.044-0.292,0.711-0.193,0.523 c-0.011,0.021-0.548,0.77-0.188,0.365c-0.081,0.091-0.795,0.652-0.19,0.228c-0.789,0.554,0.71-0.278-0.201,0.111 c1.181-0.505-0.689,0.082,0.498-0.13c-0.085,0.015-1.17,0.07-0.414,0.056c-1.763,0.033-4.037,0.549-5.098,2.123 c-1.011,1.5,0.849,2.345,2.107,2.321c4.85-0.09,11.475-2.358,11.624-8.149c0.044-1.731-2.026-1.861-3.348-1.698 C373.891,413.861,370.722,414.717,370.679,416.365L370.679,416.365z"/>
        </g>
      </g>
    </g>
    <g>
      <path fill-rule="evenodd" clip-rule="evenodd" fill="#008C99" d="M396.334,379.282c1.075-4.04,6.275,1.231,8.555-1.723 c-1.643-1.739-5.997,0.24-8.067,0.685c1.963,0.102,3.819,0.749,5.89,0.305c-0.545-0.107-1.038-0.486-1.637-0.321 c0.599-0.166,1.578-0.824,2.178-0.99c-2.563,0.064-6.929-0.792-7.078,2.862c-1.098-1.632-0.444-2.07,0.368-3.328"/>
      <g>
        <g>
          <path fill="#008C99" d="M399.101,379.6c0.267-0.831,0.604-0.697-0.497-0.042c-0.679,0.403-1.398,0.145-0.398,0.318 c0.679,0.117,1.759,0.447,2.574,0.609c2.37,0.472,4.927-0.261,6.529-2.09c0.747-0.853,0.628-1.775-0.183-2.493 c-2.944-2.608-7.606-0.375-10.829,0.386c-2.229,0.526-3.614,3.797-0.485,4.039c2.234,0.172,4.388,0.69,6.635,0.316 c1.176-0.195,2.465-0.611,3.031-1.776c0.466-0.957-0.103-1.959-1.089-2.25c-1.039-0.307-1.943-0.57-3.05-0.481 c0.087,1.35,0.173,2.701,0.26,4.051c0.707-0.257,1.63-0.79,2.178-0.99c1.015-0.369,2.255-0.958,2.409-2.186 c0.188-1.503-1.555-1.878-2.669-1.865c-3.696,0.042-9.796-0.127-10.276,5.185c1.862-0.499,3.726-0.999,5.589-1.498 c-0.39-0.645-0.263-0.635,0.133-1.224c2.052-3.059-3.378-3.849-4.84-1.67c-1.322,1.972-1.92,3.25-0.604,5.432 c1.144,1.895,5.401,0.569,5.589-1.498c0.043-0.478,0.439-1.011-0.033-0.602c-0.332,0.288,0.067,0.068,0.357,0.044 c1.179-0.098,2.362,0.031,3.556,0.018c-0.087-1.351-0.173-2.701-0.26-4.051c-0.707,0.257-1.632,0.791-2.178,0.99 c-1.015,0.369-2.255,0.958-2.409,2.186c-0.182,1.448,1.547,1.956,2.669,1.865c-1.072,0.086-0.297,0.006,0.224,0.16 c0.647-1.342,1.295-2.685,1.942-4.027c-1.742,0.29-3.406-0.159-5.145-0.293c-0.162,1.347-0.323,2.693-0.485,4.039 c1.234-0.291,4.256-1.913,5.306-0.983c-0.061-0.831-0.122-1.662-0.183-2.493c0.14-0.16,0.684-0.332,0.97-0.316 c-0.352-0.019-0.636-0.081-0.95-0.159c-0.947-0.234-1.889-0.506-2.859-0.626c-2.456-0.303-5.266,0.855-6.062,3.342 C392.549,382.145,398.328,382.012,399.101,379.6L399.101,379.6z"/>
        </g>
      </g>
    </g>
    <g>
      <path fill-rule="evenodd" clip-rule="evenodd" fill="#008C99" d="M397.387,376.999c1.077-0.217,2.377,0.074,3.503,0.152 c0.776,0.045,2.356,0.176,3.046,0.668c-0.7,0.112-1.18,0.375-1.867,0.241c-0.447-0.087-0.839-0.271-1.32-0.366"/>
      <g>
        <g>
          <path fill="#008C99" d="M397.044,378.799c0.913-0.13,1.852,0.09,2.766,0.171c0.625,0.055,1.296,0.027,1.848,0.354 c0.611-1.053,1.224-2.105,1.835-3.159c-0.256,0.047-0.51,0.104-0.762,0.172c1.176-0.293,0.316-0.217-0.247-0.362 c-1.364-0.351-3.094,0.104-4.098,1.098c-0.899,0.89-0.607,2.022,0.627,2.338c0.797,0.205,1.541,0.425,2.366,0.505 c1.011,0.097,2.022-0.245,3-0.444c1.162-0.238,3.719-2.045,1.835-3.159c-1.11-0.657-2.435-0.819-3.695-0.943 c-1.588-0.157-3.197-0.4-4.789-0.173c-1.157,0.165-2.996,0.743-3.255,2.11C394.221,378.649,396.138,378.929,397.044,378.799 L397.044,378.799z"/>
        </g>
      </g>
    </g>
    <g>
      <path fill-rule="evenodd" clip-rule="evenodd" fill="#008C99" d="M405.199,377.567c0.138,0.384,0.119,0.666,0.579,0.685 c0.213,0.006,0.966-0.382,1.131-0.492c0.424-0.345,1.532-2.074,1.386-2.602c-0.114,0.585-2.182,2.66-2.814,2.607 c0.158-0.076,1.764-0.439,1.138-0.883c-0.255-0.157-0.879,0.292-1.188,0.231c0.453-0.125,0.857-0.367,1.317-0.527"/>
      <g>
        <g>
          <path fill="#008C99" d="M402.302,378.343c0.11,0.339,0.211,0.722,0.511,0.947c0.741,0.555,1.731,0.526,2.606,0.431 c0.726-0.079,1.458-0.33,2.117-0.638c0.534-0.249,1.22-0.54,1.672-0.941c0.547-0.484,0.963-1.056,1.325-1.685 c0.354-0.615,0.785-1.332,0.659-2.076c-0.153-0.908-1.886-0.781-2.468-0.701c-1.03,0.143-2.995,0.671-3.317,1.875 c-0.036,0.134-0.147,0.306,0.102-0.148c-0.063,0.115-0.145,0.221-0.223,0.326c-0.178,0.239-0.382,0.459-0.587,0.674 c0.408-0.43,0.068-0.076-0.018,0.006c-0.134,0.126-0.272,0.246-0.412,0.363c-0.153,0.128-0.685,0.487,0.041,0.001 c-0.058,0.037-0.117,0.073-0.177,0.106c0.765-0.422,1.6-0.638,2.505-0.649c-0.016,0.864-0.032,1.729-0.048,2.593 c-0.073,0.029-0.966,0.319-0.354,0.123c0.392-0.125,0.786-0.248,1.167-0.404c0.837-0.344,1.86-0.871,2.22-1.764 c0.33-0.821-0.663-1.308-1.293-1.413c-0.764-0.127-1.64-0.037-2.377,0.186c-0.298,0.088-0.594,0.186-0.886,0.292 c-0.889,0.32,0.059-0.323,1.52-0.265c-0.269,0.949-0.537,1.898-0.806,2.847c0.717-0.225,1.378-0.518,2.075-0.78 c0.599-0.225,2.505-1.285,1.59-2.163c-0.92-0.883-2.809-0.341-3.811,0.035c-0.193,0.072-0.381,0.151-0.569,0.235 c-0.174,0.077-0.819,0.299,0.01,0.039c-0.857,0.269-2.245,0.716-2.535,1.716c-0.28,0.965,1.135,1.107,1.729,1.131 c0.532,0.021,1.219-0.079,1.729-0.228c0.298-0.085,0.593-0.182,0.885-0.291c0.863-0.307,0.097,0.263-1.512,0.257 c-0.39-0.065-0.778-0.129-1.167-0.194c-0.701-0.242-0.168-1,0.131-1.278c0.081-0.076,1.264-0.644,0.64-0.408 c1.423-0.538-0.534,0.171-0.607,0.201c-0.643,0.257-1.564,0.728-1.777,1.462c-0.274,0.946,1.129,1.136,1.729,1.131 c1.83-0.015,3.512-0.82,4.854-2.02c0.703-0.628,1.748-1.546,2.007-2.515c-1.929,0.392-3.856,0.783-5.785,1.175 c0.044,0.259,0.058-0.369-0.009-0.042c-0.032,0.157-0.101,0.309-0.163,0.456c-0.023,0.054-0.239,0.459-0.053,0.121 c-0.096,0.173-0.203,0.341-0.311,0.507c-0.124,0.19-0.777,0.937-0.198,0.354c0.517-0.519,0.453-0.29,0.119-0.117 c0.447-0.212,0.54-0.259,0.276-0.142c-0.528,0.206-0.146,0.107,1.148-0.295c0.457-0.001,0.913-0.003,1.37-0.004 c0.31,0.024,0.523,0.157,0.642,0.399c-0.056-0.117-0.082-0.257-0.123-0.38c-0.371-1.134-2.457-0.754-3.25-0.541 C404.157,376.434,401.935,377.225,402.302,378.343L402.302,378.343z"/>
        </g>
      </g>
    </g>
    <g>
      <path fill-rule="evenodd" clip-rule="evenodd" fill="#008C99" d="M405.557,377.744c-0.165-0.068-0.592-0.258-0.668-0.416 c-0.188-0.501,0.218-0.386,0.52-0.469c0.742-0.14,2.304-1.28,2.562-2.05c0.075-0.199,0.025-0.495,0.225-0.598 c0.425-0.167,0.324,0.349,0.283,0.556c-0.101,0.694-1.806,2.376-2.547,2.338"/>
      <g>
        <g>
          <path fill="#008C99" d="M407.928,376.585c0.127,0.046,0.096,0.023-0.094-0.068c-0.176-0.192-0.27-0.105-0.281,0.261 c-0.538,0.303-1.075,0.606-1.612,0.909c0.032-0.013,0.065-0.025,0.099-0.039c-0.514,0.138-1.027,0.275-1.541,0.413 c-1.479,0.243,1.186-0.238,1.17-0.234c0.381-0.091,0.758-0.214,1.123-0.358c0.735-0.291,1.435-0.65,2.089-1.098 c0.483-0.332,0.949-0.716,1.347-1.15c0.188-0.205,0.35-0.441,0.5-0.675c0.058-0.09,0.245-0.662,0.102-0.518 c-1.051,0.441-2.102,0.881-3.153,1.322c0.051-0.011,0.102-0.022,0.152-0.033c-0.617,0.006-1.234,0.013-1.852,0.019 c0.032,0.011,0.065,0.022,0.098,0.034c-0.176-0.128-0.351-0.255-0.526-0.383c0.106,0.165,0.089,0.176,0.05,0.354 c-0.023,0.104-0.083,0.203-0.133,0.296c-0.011,0.021-0.255,0.36-0.092,0.152c-0.204,0.26-0.441,0.492-0.684,0.715 c-0.403,0.372,0.315-0.218-0.106,0.088c-0.041,0.028-0.083,0.056-0.125,0.084c0.818-0.483,1.722-0.751,2.713-0.802 c-1.253,0.042-2.953,0.5-3.871,1.41c-0.964,0.954,0.843,1.065,1.395,1.047c2.185-0.074,4.401-1.148,5.844-2.784 c0.346-0.392,0.726-0.851,0.824-1.378c0.062-0.331,0.134-0.732-0.191-0.965c-0.647-0.462-1.758-0.285-2.454-0.136 c-1.066,0.229-2.351,0.515-3.153,1.322c-0.344,0.345-0.335,0.613-0.501,1.02c-0.106,0.263-0.192,0.284-0.47,0.543 c-0.428,0.401,0.301-0.204-0.178,0.144c-0.103,0.075-0.633,0.386-0.052,0.063c-0.272,0.135-0.187,0.102,0.258-0.098 c0.586-0.131,1.173-0.262,1.759-0.393c-0.282,0.024-0.562,0.061-0.841,0.108c-0.997,0.164-2.549,0.561-3.252,1.361 c-0.812,0.924,0.095,1.415,0.899,1.762c0.506,0.219,1.343,0.069,1.851-0.019c0.759-0.13,1.515-0.357,2.207-0.696 C407.915,377.86,409.078,377.082,407.928,376.585L407.928,376.585z"/>
        </g>
      </g>
    </g>
    <g>
      <path fill="#008C99" stroke="#008C99" d="M240.472,422.096c-0.016-0.022-0.027-0.049-0.042-0.072 c-1.325-0.672-2.41-1.738-3.111-3.046c-0.525-0.347-1.061-0.666-1.612-0.927c-1.643-0.036-2.988-0.526-4.027-1.314 c-2.201-0.478-4.916-0.757-8.439-0.757c-0.87,0-1.725,0.007-2.563,0.02c-0.782,0.3-1.667,0.476-2.667,0.476 c-0.834,0-1.59-0.12-2.273-0.333c-0.741,0.031-1.469,0.065-2.18,0.103c-0.581,0.145-1.205,0.23-1.885,0.23 c-0.338,0-0.661-0.025-0.974-0.062c-0.63,0.042-1.278,0.083-1.877,0.128c-0.686,0.437-0.686,6.094-0.124,6.406l1.935-1.178 c2.622,0.312,2.747-1.795,2.747,4.508v1.229c0.601,1.604,0.65,3.4,0,5.008v6.335c0.141,0.558,0.236,1.13,0.228,1.728 c-0.018,1.271-0.159,2.54-0.21,3.812c-0.013,0.306-0.013,0.614-0.018,0.923v0.605c0.67,1.639,0.582,3.478-0.057,5.109 c-0.128,2.031-0.522,2.31-1.574,2.454c-0.435,0.453-0.907,0.868-1.451,1.187c-0.743,0.436-1.518,0.686-2.297,0.826 c-0.007,0.881,0.192,1.85,0.573,2.057c0.875-0.032,1.724-0.061,2.555-0.084c0.231-0.09,0.46-0.17,0.684-0.23 c1.39-0.383,2.874-0.326,4.228,0.137c0.634-0.005,1.266-0.01,1.896-0.01c0.341,0,0.688,0.004,1.032,0.006 c0.726-0.247,1.537-0.389,2.44-0.389c0.99,0,1.866,0.173,2.643,0.467c1.108,0.028,2.24,0.061,3.435,0.104 c0.259-0.141,0.419-0.634,0.483-1.211c-0.318-0.576-0.376-1.244-0.148-1.836c-0.083-0.244-0.19-0.438-0.334-0.503l-1.998-0.312 c-2.329-0.362-2.983,0.2-3.139-3.72c-0.38-0.748-0.558-1.608-0.468-2.494c0.086-0.856,0.246-1.692,0.401-2.537 c0.006-0.031,0.016-0.074,0.022-0.109v-1.482c-0.225-0.576-0.199-1.127,0-1.602v-1.627c1.252-0.054,3.284-0.234,5.582-0.656 c0.038-0.02,0.065-0.051,0.104-0.068c3.232-1.584,6.619-3.1,10.171-3.785c0.156-0.11,0.296-0.232,0.446-0.348 c0.049-0.141,0.082-0.291,0.137-0.429c0.85-2.092,1.693-3.655,1.752-5.896C240.547,426.984,240.355,424.5,240.472,422.096z M228.139,432.545c-0.09,0.027-0.194,0.045-0.289,0.068c-0.182,0.041-0.369,0.08-0.557,0.119 c-0.665,0.092-1.299,0.652-1.979,0.836c-0.613,0.166-1.14,0.068-1.563-0.178c-0.485,0.094-0.971,0.191-1.449,0.304v-2.138 c-0.059-0.135-0.109-0.279-0.145-0.441c-0.201-0.912-0.264-1.771-0.065-2.691c0.081-0.377,0.167-0.715,0.21-1.066v-0.791 c-0.096-0.857-0.228-1.77,0-2.604v-1.93c0-1.041,0.135-0.368,2.278-0.333c0.5-0.319,1.128-0.438,1.777-0.347 c1.614,0.228,2.932,0.607,4.173,1.726c1.174,1.058,3.062,2.42,2.835,4.26c-0.109,0.886-0.316,1.7-0.857,2.396 C231.938,431.306,230.254,432.041,228.139,432.545z"/>
    </g>
    <g>
      <g>
        <path fill="#008C99" d="M381.592,390.421c1.854-0.416,3.451-1.535,4.434-3.165c-0.625,0.022-1.249,0.045-1.874,0.068 c-0.321,2.004-2.983,1.696-4.504,2.275c-0.327,0.125-0.73,0.458-0.501,0.827c0.934,1.502,3.004,1.071,3.916-0.206 c0.212-0.297-0.064-0.511-0.322-0.597c-0.141-0.047-0.282-0.094-0.424-0.141c-0.063,0.331-0.127,0.662-0.19,0.993 c1.781-0.633,4.047-1.82,4.811-3.653c-0.645,0.123-1.29,0.246-1.935,0.369c0.128,0.332,0.127,0.659-0.003,0.98 c0.12-0.145,0.239-0.289,0.359-0.433c-0.537,0.311-0.964,0.734-1.443,1.123c-0.739,0.598,0.523,0.815,0.923,0.714 c0.504-0.127,0.952-0.404,1.439-0.575c-0.385,0.017-0.771,0.034-1.155,0.051c0.006,0.002,0.011,0.005,0.017,0.008 c0.051-0.271,0.103-0.542,0.153-0.812c-0.024,0.019-0.05,0.038-0.075,0.057c0.526,0.071,1.053,0.142,1.578,0.213 c0.126-0.924,0.122-1.718-0.357-2.538c-0.347-0.594-2.222,0.035-1.787,0.778c0.366,0.627,0.301,1.289,0.207,1.979 c-0.102,0.743,1.271,0.445,1.578,0.213c0.024-0.019,0.05-0.038,0.075-0.057c0.24-0.183,0.598-0.603,0.153-0.812 c-0.754-0.355-1.556,0.304-2.107,0.443c0.308,0.238,0.615,0.476,0.923,0.714c0.977-0.789,1.793-1.167,1.454-2.564 c-0.195-0.808-1.73-0.122-1.935,0.369c-0.537,1.288-2.432,2.121-3.658,2.557c-0.51,0.181-0.848,0.774-0.19,0.993 c0.141,0.047,0.282,0.094,0.424,0.141c-0.107-0.199-0.215-0.397-0.322-0.597c0.05-0.07-0.192-0.286-0.318-0.488 c-0.167,0.275-0.334,0.551-0.501,0.827c2.101-0.799,5.195-0.491,5.656-3.371c0.139-0.864-1.612-0.365-1.874,0.068 c-0.671,1.113-1.621,1.91-2.904,2.198C380.124,389.636,380.423,390.684,381.592,390.421L381.592,390.421z"/>
      </g>
    </g>
    <g>
      <g>
        <path fill="#008C99" d="M378.822,404.659c0.746,0.142,5.336,1.089,4.781,1.92c-0.032,0.063-0.019,0.115,0.041,0.153 c0.474,0.326,0.939,0.662,1.412,0.988c0.285,0.196,2.035-0.167,1.877-0.585c-0.216-0.573-0.49-1.12-0.706-1.693 c-0.162-0.433-1.478,0.085-1.703,0.238c-0.518,0.349-0.482,0.23-1.122-0.106c-0.549-0.29-1.104-0.45-1.721-0.524 c-0.313-0.037-2.027,0.559-1.706,0.695c0.976,0.413,1.853,1.01,2.829,1.422c0.459,0.193,1.946-0.254,1.157-0.439 c-0.377-0.088-0.737-0.313-1.07-0.502c-0.621-0.352-1.192-0.794-1.745-1.244c-0.281-0.229-0.548-0.475-0.81-0.726 c-0.104-0.102-0.204-0.207-0.302-0.314c-0.799,0.185-0.96,0.209-0.482,0.072c-0.316-0.07-0.634-0.141-0.95-0.21 c0.087-0.049,0.173-0.098,0.26-0.146c-0.14,0.051-0.815,0.293-0.58,0.536c0.159,0.138,0.282,0.303,0.369,0.497 c0.203,0.46,2.076-0.19,1.932-0.518c-0.111-0.253-0.285-0.433-0.479-0.632c-0.193,0.178-0.387,0.357-0.58,0.536 c0.305-0.111,0.571-0.226,0.824-0.429c0.475-0.38-0.838-0.245-0.95-0.21c-0.504,0.154-0.999,0.236-1.36,0.649 c-0.064,0.045-0.096,0.105-0.093,0.181c1.369,1.778,4.814,4.605,7.061,2.626c0.153-0.135,0.092-0.238-0.078-0.291 c-1.115-0.348-2.06-1.056-3.13-1.509c-0.569,0.231-1.138,0.463-1.706,0.695c1.013,0.121,1.929,0.978,2.937,0.948 c1.112-0.033,2.053-0.395,2.971-1.014c-0.567,0.079-1.136,0.159-1.703,0.238c0.215,0.573,0.49,1.121,0.706,1.693 c0.625-0.195,1.251-0.39,1.877-0.585c-0.393-0.27-1.454-0.709-1.089-1.258c0.032-0.063,0.019-0.115-0.041-0.153 c-1.643-0.919-3.5-1.388-5.337-1.736C379.964,403.836,378.299,404.56,378.822,404.659L378.822,404.659z"/>
      </g>
    </g>
  </g>
</svg>